<mxfile host="app.diagrams.net" modified="2021-08-02T06:33:00.256Z" agent="5.0 (Macintosh; Intel Mac OS X 10_14_5) AppleWebKit/537.36 (KHTML, like Gecko) Chrome/91.0.4472.114 Safari/537.36" etag="LLpeLrloMgAZCbvwjoIv" version="14.9.2" type="github" pages="2">
  <diagram id="AP7MPyzBHLV_mP8K46hF" name="Page-1">
    <mxGraphModel dx="788" dy="538" grid="0" gridSize="10" guides="1" tooltips="1" connect="1" arrows="1" fold="1" page="1" pageScale="1" pageWidth="827" pageHeight="1169" math="0" shadow="0">
      <root>
        <mxCell id="0" />
        <mxCell id="1" parent="0" />
        <mxCell id="wbXpezz0VNGxaIe4ll2v-1" value="" style="rounded=0;whiteSpace=wrap;html=1;" vertex="1" parent="1">
          <mxGeometry x="120" y="51" width="190" height="320" as="geometry" />
        </mxCell>
        <mxCell id="wbXpezz0VNGxaIe4ll2v-2" value="" style="verticalLabelPosition=bottom;verticalAlign=top;html=1;shadow=0;dashed=0;strokeWidth=1;shape=mxgraph.android.keyboard;" vertex="1" parent="1">
          <mxGeometry x="122.5" y="267" width="185" height="100" as="geometry" />
        </mxCell>
        <mxCell id="wbXpezz0VNGxaIe4ll2v-3" value="" style="html=1;strokeWidth=1;shadow=0;dashed=0;shape=mxgraph.ios7ui.callout;strokeColor=none;fillColor=#E7E6EC;align=left;verticalAlign=middle;fontSize=7;spacingLeft=17;fontColor=#000000;spacingTop=2;whiteSpace=wrap;resizeWidth=1;" vertex="1" parent="1">
          <mxGeometry x="152.5" y="86" width="90" height="20" as="geometry">
            <mxPoint x="5" y="15" as="offset" />
          </mxGeometry>
        </mxCell>
        <mxCell id="wbXpezz0VNGxaIe4ll2v-4" value="&lt;div style=&quot;text-align: justify&quot;&gt;&lt;br&gt;&lt;/div&gt;" style="html=1;strokeWidth=1;shadow=0;dashed=0;shape=mxgraph.ios7ui.callout;strokeColor=none;fillColor=#0680FF;flipH=1;align=center;verticalAlign=top;fontSize=7;spacingLeft=2;fontColor=#ffffff;spacingTop=-2;whiteSpace=wrap;spacingRight=12;resizeWidth=1;" vertex="1" parent="1">
          <mxGeometry x="190" y="123.5" width="87.5" height="25" as="geometry">
            <mxPoint y="40" as="offset" />
          </mxGeometry>
        </mxCell>
        <mxCell id="wbXpezz0VNGxaIe4ll2v-5" value="" style="verticalLabelPosition=bottom;shadow=0;dashed=0;align=center;html=1;verticalAlign=top;strokeWidth=1;shape=mxgraph.mockup.containers.userMale;strokeColor=#666666;strokeColor2=#008cff;" vertex="1" parent="1">
          <mxGeometry x="122.5" y="81" width="30" height="30" as="geometry" />
        </mxCell>
        <mxCell id="wbXpezz0VNGxaIe4ll2v-6" value="" style="verticalLabelPosition=bottom;shadow=0;dashed=0;align=center;html=1;verticalAlign=top;strokeWidth=1;shape=mxgraph.mockup.containers.userFemale;strokeColor=#666666;strokeColor2=#008cff;" vertex="1" parent="1">
          <mxGeometry x="277.5" y="118.5" width="30" height="30" as="geometry" />
        </mxCell>
        <mxCell id="wbXpezz0VNGxaIe4ll2v-7" value="" style="html=1;strokeWidth=1;shadow=0;dashed=0;shape=mxgraph.ios7ui.callout;strokeColor=none;fillColor=#E7E6EC;align=left;verticalAlign=middle;fontSize=7;spacingLeft=17;fontColor=#000000;spacingTop=2;whiteSpace=wrap;resizeWidth=1;" vertex="1" parent="1">
          <mxGeometry x="152.5" y="166" width="90" height="20" as="geometry">
            <mxPoint x="5" y="15" as="offset" />
          </mxGeometry>
        </mxCell>
        <mxCell id="wbXpezz0VNGxaIe4ll2v-8" value="" style="verticalLabelPosition=bottom;shadow=0;dashed=0;align=center;html=1;verticalAlign=top;strokeWidth=1;shape=mxgraph.mockup.containers.userMale;strokeColor=#666666;strokeColor2=#008cff;" vertex="1" parent="1">
          <mxGeometry x="122.5" y="161" width="30" height="30" as="geometry" />
        </mxCell>
        <mxCell id="wbXpezz0VNGxaIe4ll2v-9" value="&lt;div style=&quot;text-align: justify&quot;&gt;&lt;br&gt;&lt;/div&gt;" style="html=1;strokeWidth=1;shadow=0;dashed=0;shape=mxgraph.ios7ui.callout;strokeColor=none;fillColor=#0680FF;flipH=1;align=center;verticalAlign=top;fontSize=7;spacingLeft=2;fontColor=#ffffff;spacingTop=-2;whiteSpace=wrap;spacingRight=12;resizeWidth=1;" vertex="1" parent="1">
          <mxGeometry x="190" y="201" width="87.5" height="25" as="geometry">
            <mxPoint y="40" as="offset" />
          </mxGeometry>
        </mxCell>
        <mxCell id="wbXpezz0VNGxaIe4ll2v-10" value="" style="verticalLabelPosition=bottom;shadow=0;dashed=0;align=center;html=1;verticalAlign=top;strokeWidth=1;shape=mxgraph.mockup.containers.userFemale;strokeColor=#666666;strokeColor2=#008cff;" vertex="1" parent="1">
          <mxGeometry x="277.5" y="196" width="30" height="30" as="geometry" />
        </mxCell>
        <mxCell id="wbXpezz0VNGxaIe4ll2v-11" value="xxxxxxxx" style="text;html=1;strokeColor=none;fillColor=none;align=center;verticalAlign=middle;whiteSpace=wrap;rounded=0;" vertex="1" parent="1">
          <mxGeometry x="170" y="86" width="60" height="20" as="geometry" />
        </mxCell>
        <mxCell id="wbXpezz0VNGxaIe4ll2v-12" value="xxxxxxxx" style="text;html=1;strokeColor=none;fillColor=none;align=center;verticalAlign=middle;whiteSpace=wrap;rounded=0;" vertex="1" parent="1">
          <mxGeometry x="200" y="128.5" width="60" height="20" as="geometry" />
        </mxCell>
        <mxCell id="wbXpezz0VNGxaIe4ll2v-13" value="xxxxxxxx" style="text;html=1;strokeColor=none;fillColor=none;align=center;verticalAlign=middle;whiteSpace=wrap;rounded=0;" vertex="1" parent="1">
          <mxGeometry x="170" y="166" width="60" height="20" as="geometry" />
        </mxCell>
        <mxCell id="wbXpezz0VNGxaIe4ll2v-14" value="xxxxxxxx" style="text;html=1;strokeColor=none;fillColor=none;align=center;verticalAlign=middle;whiteSpace=wrap;rounded=0;" vertex="1" parent="1">
          <mxGeometry x="200" y="206" width="60" height="20" as="geometry" />
        </mxCell>
        <mxCell id="wbXpezz0VNGxaIe4ll2v-15" value="" style="line;strokeWidth=1;html=1;" vertex="1" parent="1">
          <mxGeometry x="120" y="71" width="190" height="10" as="geometry" />
        </mxCell>
        <mxCell id="wbXpezz0VNGxaIe4ll2v-16" value="&lt;font style=&quot;font-weight: normal ; font-size: 13px&quot;&gt;联系人1&lt;/font&gt;" style="text;strokeColor=none;fillColor=none;html=1;fontSize=24;fontStyle=1;verticalAlign=middle;align=center;" vertex="1" parent="1">
          <mxGeometry x="180" y="45" width="70" height="30" as="geometry" />
        </mxCell>
        <mxCell id="wbXpezz0VNGxaIe4ll2v-17" value="&lt;span style=&quot;font-weight: normal&quot;&gt;&lt;font style=&quot;font-size: 18px&quot;&gt;...&lt;/font&gt;&lt;/span&gt;" style="text;strokeColor=none;fillColor=none;html=1;fontSize=24;fontStyle=1;verticalAlign=middle;align=center;" vertex="1" parent="1">
          <mxGeometry x="280" y="40" width="30" height="40" as="geometry" />
        </mxCell>
        <mxCell id="wbXpezz0VNGxaIe4ll2v-18" value="&lt;span style=&quot;font-weight: normal&quot;&gt;&lt;font style=&quot;font-size: 18px&quot;&gt;&amp;lt;&lt;/font&gt;&lt;/span&gt;" style="text;strokeColor=none;fillColor=none;html=1;fontSize=24;fontStyle=1;verticalAlign=middle;align=center;" vertex="1" parent="1">
          <mxGeometry x="120" y="41" width="30" height="40" as="geometry" />
        </mxCell>
        <mxCell id="wbXpezz0VNGxaIe4ll2v-19" value="" style="rounded=0;whiteSpace=wrap;html=1;" vertex="1" parent="1">
          <mxGeometry x="550" y="40" width="60" height="320" as="geometry" />
        </mxCell>
        <mxCell id="wbXpezz0VNGxaIe4ll2v-20" value="" style="rounded=0;whiteSpace=wrap;html=1;" vertex="1" parent="1">
          <mxGeometry x="360" y="40" width="190" height="320" as="geometry" />
        </mxCell>
        <mxCell id="wbXpezz0VNGxaIe4ll2v-21" value="" style="verticalLabelPosition=bottom;verticalAlign=top;html=1;shadow=0;dashed=0;strokeWidth=1;shape=mxgraph.android.keyboard;" vertex="1" parent="1">
          <mxGeometry x="362.5" y="256" width="185" height="100" as="geometry" />
        </mxCell>
        <mxCell id="wbXpezz0VNGxaIe4ll2v-22" value="" style="html=1;strokeWidth=1;shadow=0;dashed=0;shape=mxgraph.ios7ui.callout;strokeColor=none;fillColor=#E7E6EC;align=left;verticalAlign=middle;fontSize=7;spacingLeft=17;fontColor=#000000;spacingTop=2;whiteSpace=wrap;resizeWidth=1;" vertex="1" parent="1">
          <mxGeometry x="392.5" y="75" width="90" height="20" as="geometry">
            <mxPoint x="5" y="15" as="offset" />
          </mxGeometry>
        </mxCell>
        <mxCell id="wbXpezz0VNGxaIe4ll2v-23" value="&lt;div style=&quot;text-align: justify&quot;&gt;&lt;br&gt;&lt;/div&gt;" style="html=1;strokeWidth=1;shadow=0;dashed=0;shape=mxgraph.ios7ui.callout;strokeColor=none;fillColor=#0680FF;flipH=1;align=center;verticalAlign=top;fontSize=7;spacingLeft=2;fontColor=#ffffff;spacingTop=-2;whiteSpace=wrap;spacingRight=12;resizeWidth=1;" vertex="1" parent="1">
          <mxGeometry x="430" y="112.5" width="87.5" height="25" as="geometry">
            <mxPoint y="40" as="offset" />
          </mxGeometry>
        </mxCell>
        <mxCell id="wbXpezz0VNGxaIe4ll2v-24" value="" style="verticalLabelPosition=bottom;shadow=0;dashed=0;align=center;html=1;verticalAlign=top;strokeWidth=1;shape=mxgraph.mockup.containers.userMale;strokeColor=#666666;strokeColor2=#008cff;" vertex="1" parent="1">
          <mxGeometry x="362.5" y="70" width="30" height="30" as="geometry" />
        </mxCell>
        <mxCell id="wbXpezz0VNGxaIe4ll2v-25" value="" style="verticalLabelPosition=bottom;shadow=0;dashed=0;align=center;html=1;verticalAlign=top;strokeWidth=1;shape=mxgraph.mockup.containers.userFemale;strokeColor=#666666;strokeColor2=#008cff;" vertex="1" parent="1">
          <mxGeometry x="517.5" y="107.5" width="30" height="30" as="geometry" />
        </mxCell>
        <mxCell id="wbXpezz0VNGxaIe4ll2v-26" value="" style="html=1;strokeWidth=1;shadow=0;dashed=0;shape=mxgraph.ios7ui.callout;strokeColor=none;fillColor=#E7E6EC;align=left;verticalAlign=middle;fontSize=7;spacingLeft=17;fontColor=#000000;spacingTop=2;whiteSpace=wrap;resizeWidth=1;" vertex="1" parent="1">
          <mxGeometry x="392.5" y="155" width="90" height="20" as="geometry">
            <mxPoint x="5" y="15" as="offset" />
          </mxGeometry>
        </mxCell>
        <mxCell id="wbXpezz0VNGxaIe4ll2v-27" value="" style="verticalLabelPosition=bottom;shadow=0;dashed=0;align=center;html=1;verticalAlign=top;strokeWidth=1;shape=mxgraph.mockup.containers.userMale;strokeColor=#666666;strokeColor2=#008cff;" vertex="1" parent="1">
          <mxGeometry x="362.5" y="150" width="30" height="30" as="geometry" />
        </mxCell>
        <mxCell id="wbXpezz0VNGxaIe4ll2v-28" value="&lt;div style=&quot;text-align: justify&quot;&gt;&lt;br&gt;&lt;/div&gt;" style="html=1;strokeWidth=1;shadow=0;dashed=0;shape=mxgraph.ios7ui.callout;strokeColor=none;fillColor=#0680FF;flipH=1;align=center;verticalAlign=top;fontSize=7;spacingLeft=2;fontColor=#ffffff;spacingTop=-2;whiteSpace=wrap;spacingRight=12;resizeWidth=1;" vertex="1" parent="1">
          <mxGeometry x="430" y="190" width="87.5" height="25" as="geometry">
            <mxPoint y="40" as="offset" />
          </mxGeometry>
        </mxCell>
        <mxCell id="wbXpezz0VNGxaIe4ll2v-29" value="" style="verticalLabelPosition=bottom;shadow=0;dashed=0;align=center;html=1;verticalAlign=top;strokeWidth=1;shape=mxgraph.mockup.containers.userFemale;strokeColor=#666666;strokeColor2=#008cff;" vertex="1" parent="1">
          <mxGeometry x="517.5" y="185" width="30" height="30" as="geometry" />
        </mxCell>
        <mxCell id="wbXpezz0VNGxaIe4ll2v-30" value="xxxxxxxx" style="text;html=1;strokeColor=none;fillColor=none;align=center;verticalAlign=middle;whiteSpace=wrap;rounded=0;" vertex="1" parent="1">
          <mxGeometry x="410" y="75" width="60" height="20" as="geometry" />
        </mxCell>
        <mxCell id="wbXpezz0VNGxaIe4ll2v-31" value="xxxxxxxx" style="text;html=1;strokeColor=none;fillColor=none;align=center;verticalAlign=middle;whiteSpace=wrap;rounded=0;" vertex="1" parent="1">
          <mxGeometry x="440" y="117.5" width="60" height="20" as="geometry" />
        </mxCell>
        <mxCell id="wbXpezz0VNGxaIe4ll2v-32" value="xxxxxxxx" style="text;html=1;strokeColor=none;fillColor=none;align=center;verticalAlign=middle;whiteSpace=wrap;rounded=0;" vertex="1" parent="1">
          <mxGeometry x="410" y="155" width="60" height="20" as="geometry" />
        </mxCell>
        <mxCell id="wbXpezz0VNGxaIe4ll2v-33" value="xxxxxxxx" style="text;html=1;strokeColor=none;fillColor=none;align=center;verticalAlign=middle;whiteSpace=wrap;rounded=0;" vertex="1" parent="1">
          <mxGeometry x="440" y="195" width="60" height="20" as="geometry" />
        </mxCell>
        <mxCell id="wbXpezz0VNGxaIe4ll2v-34" value="" style="line;strokeWidth=1;html=1;" vertex="1" parent="1">
          <mxGeometry x="360" y="60" width="190" height="10" as="geometry" />
        </mxCell>
        <mxCell id="wbXpezz0VNGxaIe4ll2v-35" value="&lt;font style=&quot;font-weight: normal ; font-size: 13px&quot;&gt;联系人1&lt;/font&gt;" style="text;strokeColor=none;fillColor=none;html=1;fontSize=24;fontStyle=1;verticalAlign=middle;align=center;" vertex="1" parent="1">
          <mxGeometry x="420" y="34" width="70" height="30" as="geometry" />
        </mxCell>
        <mxCell id="wbXpezz0VNGxaIe4ll2v-36" value="&lt;span style=&quot;font-weight: normal&quot;&gt;&lt;font style=&quot;font-size: 18px&quot;&gt;...&lt;/font&gt;&lt;/span&gt;" style="text;strokeColor=none;fillColor=none;html=1;fontSize=24;fontStyle=1;verticalAlign=middle;align=center;" vertex="1" parent="1">
          <mxGeometry x="520" y="29" width="30" height="40" as="geometry" />
        </mxCell>
        <mxCell id="wbXpezz0VNGxaIe4ll2v-37" value="&lt;span style=&quot;font-weight: normal&quot;&gt;&lt;font style=&quot;font-size: 18px&quot;&gt;&amp;lt;&lt;/font&gt;&lt;/span&gt;" style="text;strokeColor=none;fillColor=none;html=1;fontSize=24;fontStyle=1;verticalAlign=middle;align=center;" vertex="1" parent="1">
          <mxGeometry x="360" y="30" width="30" height="40" as="geometry" />
        </mxCell>
        <mxCell id="wbXpezz0VNGxaIe4ll2v-39" value="&lt;font style=&quot;font-size: 13px ; font-weight: normal&quot;&gt;时钟&lt;/font&gt;" style="text;strokeColor=none;fillColor=none;html=1;fontSize=24;fontStyle=1;verticalAlign=middle;align=center;" vertex="1" parent="1">
          <mxGeometry x="545" y="100" width="70" height="30" as="geometry" />
        </mxCell>
        <mxCell id="wbXpezz0VNGxaIe4ll2v-40" value="&lt;span style=&quot;font-size: 13px ; font-weight: 400&quot;&gt;日历&lt;/span&gt;" style="text;strokeColor=none;fillColor=none;html=1;fontSize=24;fontStyle=1;verticalAlign=middle;align=center;" vertex="1" parent="1">
          <mxGeometry x="544.12" y="228" width="70" height="30" as="geometry" />
        </mxCell>
        <mxCell id="wbXpezz0VNGxaIe4ll2v-41" value="&lt;span style=&quot;font-size: 13px ; font-weight: 400&quot;&gt;天气&lt;/span&gt;" style="text;strokeColor=none;fillColor=none;html=1;fontSize=24;fontStyle=1;verticalAlign=middle;align=center;" vertex="1" parent="1">
          <mxGeometry x="545" y="164" width="70" height="30" as="geometry" />
        </mxCell>
        <mxCell id="wbXpezz0VNGxaIe4ll2v-42" value="&lt;span style=&quot;font-size: 13px ; font-weight: 400&quot;&gt;音乐&lt;/span&gt;" style="text;strokeColor=none;fillColor=none;html=1;fontSize=24;fontStyle=1;verticalAlign=middle;align=center;" vertex="1" parent="1">
          <mxGeometry x="545" y="294" width="70" height="30" as="geometry" />
        </mxCell>
        <mxCell id="wbXpezz0VNGxaIe4ll2v-46" value="App1" style="rounded=0;whiteSpace=wrap;html=1;aspect=fixed;" vertex="1" parent="1">
          <mxGeometry x="561.62" y="71" width="35" height="35" as="geometry" />
        </mxCell>
        <mxCell id="wbXpezz0VNGxaIe4ll2v-47" value="" style="rounded=0;whiteSpace=wrap;html=1;aspect=fixed;" vertex="1" parent="1">
          <mxGeometry x="562.5" y="137.5" width="35" height="35" as="geometry" />
        </mxCell>
        <mxCell id="wbXpezz0VNGxaIe4ll2v-48" value="" style="rounded=0;whiteSpace=wrap;html=1;aspect=fixed;" vertex="1" parent="1">
          <mxGeometry x="561.62" y="201" width="35" height="35" as="geometry" />
        </mxCell>
        <mxCell id="wbXpezz0VNGxaIe4ll2v-49" value="" style="rounded=0;whiteSpace=wrap;html=1;aspect=fixed;" vertex="1" parent="1">
          <mxGeometry x="561.62" y="267" width="35" height="35" as="geometry" />
        </mxCell>
        <mxCell id="wbXpezz0VNGxaIe4ll2v-50" value="" style="rounded=0;whiteSpace=wrap;html=1;" vertex="1" parent="1">
          <mxGeometry x="980" y="40" width="120" height="320" as="geometry" />
        </mxCell>
        <mxCell id="wbXpezz0VNGxaIe4ll2v-51" value="" style="rounded=0;whiteSpace=wrap;html=1;" vertex="1" parent="1">
          <mxGeometry x="790" y="40" width="190" height="320" as="geometry" />
        </mxCell>
        <mxCell id="wbXpezz0VNGxaIe4ll2v-52" value="" style="verticalLabelPosition=bottom;verticalAlign=top;html=1;shadow=0;dashed=0;strokeWidth=1;shape=mxgraph.android.keyboard;" vertex="1" parent="1">
          <mxGeometry x="792.5" y="256" width="185" height="100" as="geometry" />
        </mxCell>
        <mxCell id="wbXpezz0VNGxaIe4ll2v-53" value="" style="html=1;strokeWidth=1;shadow=0;dashed=0;shape=mxgraph.ios7ui.callout;strokeColor=none;fillColor=#E7E6EC;align=left;verticalAlign=middle;fontSize=7;spacingLeft=17;fontColor=#000000;spacingTop=2;whiteSpace=wrap;resizeWidth=1;" vertex="1" parent="1">
          <mxGeometry x="822.5" y="75" width="90" height="20" as="geometry">
            <mxPoint x="5" y="15" as="offset" />
          </mxGeometry>
        </mxCell>
        <mxCell id="wbXpezz0VNGxaIe4ll2v-54" value="&lt;div style=&quot;text-align: justify&quot;&gt;&lt;br&gt;&lt;/div&gt;" style="html=1;strokeWidth=1;shadow=0;dashed=0;shape=mxgraph.ios7ui.callout;strokeColor=none;fillColor=#0680FF;flipH=1;align=center;verticalAlign=top;fontSize=7;spacingLeft=2;fontColor=#ffffff;spacingTop=-2;whiteSpace=wrap;spacingRight=12;resizeWidth=1;" vertex="1" parent="1">
          <mxGeometry x="860" y="112.5" width="87.5" height="25" as="geometry">
            <mxPoint y="40" as="offset" />
          </mxGeometry>
        </mxCell>
        <mxCell id="wbXpezz0VNGxaIe4ll2v-55" value="" style="verticalLabelPosition=bottom;shadow=0;dashed=0;align=center;html=1;verticalAlign=top;strokeWidth=1;shape=mxgraph.mockup.containers.userMale;strokeColor=#666666;strokeColor2=#008cff;" vertex="1" parent="1">
          <mxGeometry x="792.5" y="70" width="30" height="30" as="geometry" />
        </mxCell>
        <mxCell id="wbXpezz0VNGxaIe4ll2v-56" value="" style="verticalLabelPosition=bottom;shadow=0;dashed=0;align=center;html=1;verticalAlign=top;strokeWidth=1;shape=mxgraph.mockup.containers.userFemale;strokeColor=#666666;strokeColor2=#008cff;" vertex="1" parent="1">
          <mxGeometry x="947.5" y="107.5" width="30" height="30" as="geometry" />
        </mxCell>
        <mxCell id="wbXpezz0VNGxaIe4ll2v-57" value="" style="html=1;strokeWidth=1;shadow=0;dashed=0;shape=mxgraph.ios7ui.callout;strokeColor=none;fillColor=#E7E6EC;align=left;verticalAlign=middle;fontSize=7;spacingLeft=17;fontColor=#000000;spacingTop=2;whiteSpace=wrap;resizeWidth=1;" vertex="1" parent="1">
          <mxGeometry x="822.5" y="155" width="90" height="20" as="geometry">
            <mxPoint x="5" y="15" as="offset" />
          </mxGeometry>
        </mxCell>
        <mxCell id="wbXpezz0VNGxaIe4ll2v-58" value="" style="verticalLabelPosition=bottom;shadow=0;dashed=0;align=center;html=1;verticalAlign=top;strokeWidth=1;shape=mxgraph.mockup.containers.userMale;strokeColor=#666666;strokeColor2=#008cff;" vertex="1" parent="1">
          <mxGeometry x="792.5" y="150" width="30" height="30" as="geometry" />
        </mxCell>
        <mxCell id="wbXpezz0VNGxaIe4ll2v-59" value="&lt;div style=&quot;text-align: justify&quot;&gt;&lt;br&gt;&lt;/div&gt;" style="html=1;strokeWidth=1;shadow=0;dashed=0;shape=mxgraph.ios7ui.callout;strokeColor=none;fillColor=#0680FF;flipH=1;align=center;verticalAlign=top;fontSize=7;spacingLeft=2;fontColor=#ffffff;spacingTop=-2;whiteSpace=wrap;spacingRight=12;resizeWidth=1;" vertex="1" parent="1">
          <mxGeometry x="860" y="190" width="87.5" height="25" as="geometry">
            <mxPoint y="40" as="offset" />
          </mxGeometry>
        </mxCell>
        <mxCell id="wbXpezz0VNGxaIe4ll2v-60" value="" style="verticalLabelPosition=bottom;shadow=0;dashed=0;align=center;html=1;verticalAlign=top;strokeWidth=1;shape=mxgraph.mockup.containers.userFemale;strokeColor=#666666;strokeColor2=#008cff;" vertex="1" parent="1">
          <mxGeometry x="947.5" y="185" width="30" height="30" as="geometry" />
        </mxCell>
        <mxCell id="wbXpezz0VNGxaIe4ll2v-61" value="xxxxxxxx" style="text;html=1;strokeColor=none;fillColor=none;align=center;verticalAlign=middle;whiteSpace=wrap;rounded=0;" vertex="1" parent="1">
          <mxGeometry x="840" y="75" width="60" height="20" as="geometry" />
        </mxCell>
        <mxCell id="wbXpezz0VNGxaIe4ll2v-62" value="xxxxxxxx" style="text;html=1;strokeColor=none;fillColor=none;align=center;verticalAlign=middle;whiteSpace=wrap;rounded=0;" vertex="1" parent="1">
          <mxGeometry x="870" y="117.5" width="60" height="20" as="geometry" />
        </mxCell>
        <mxCell id="wbXpezz0VNGxaIe4ll2v-63" value="xxxxxxxx" style="text;html=1;strokeColor=none;fillColor=none;align=center;verticalAlign=middle;whiteSpace=wrap;rounded=0;" vertex="1" parent="1">
          <mxGeometry x="840" y="155" width="60" height="20" as="geometry" />
        </mxCell>
        <mxCell id="wbXpezz0VNGxaIe4ll2v-64" value="xxxxxxxx" style="text;html=1;strokeColor=none;fillColor=none;align=center;verticalAlign=middle;whiteSpace=wrap;rounded=0;" vertex="1" parent="1">
          <mxGeometry x="870" y="195" width="60" height="20" as="geometry" />
        </mxCell>
        <mxCell id="wbXpezz0VNGxaIe4ll2v-65" value="" style="line;strokeWidth=1;html=1;" vertex="1" parent="1">
          <mxGeometry x="790" y="60" width="190" height="10" as="geometry" />
        </mxCell>
        <mxCell id="wbXpezz0VNGxaIe4ll2v-66" value="&lt;font style=&quot;font-weight: normal ; font-size: 13px&quot;&gt;联系人1&lt;/font&gt;" style="text;strokeColor=none;fillColor=none;html=1;fontSize=24;fontStyle=1;verticalAlign=middle;align=center;" vertex="1" parent="1">
          <mxGeometry x="850" y="34" width="70" height="30" as="geometry" />
        </mxCell>
        <mxCell id="wbXpezz0VNGxaIe4ll2v-67" value="&lt;span style=&quot;font-weight: normal&quot;&gt;&lt;font style=&quot;font-size: 18px&quot;&gt;...&lt;/font&gt;&lt;/span&gt;" style="text;strokeColor=none;fillColor=none;html=1;fontSize=24;fontStyle=1;verticalAlign=middle;align=center;" vertex="1" parent="1">
          <mxGeometry x="950" y="29" width="30" height="40" as="geometry" />
        </mxCell>
        <mxCell id="wbXpezz0VNGxaIe4ll2v-68" value="&lt;span style=&quot;font-weight: normal&quot;&gt;&lt;font style=&quot;font-size: 18px&quot;&gt;&amp;lt;&lt;/font&gt;&lt;/span&gt;" style="text;strokeColor=none;fillColor=none;html=1;fontSize=24;fontStyle=1;verticalAlign=middle;align=center;" vertex="1" parent="1">
          <mxGeometry x="790" y="30" width="30" height="40" as="geometry" />
        </mxCell>
        <mxCell id="wbXpezz0VNGxaIe4ll2v-69" value="&lt;span style=&quot;font-size: 13px ; font-weight: 400&quot;&gt;天气&lt;/span&gt;" style="text;strokeColor=none;fillColor=none;html=1;fontSize=24;fontStyle=1;verticalAlign=middle;align=center;" vertex="1" parent="1">
          <mxGeometry x="1005.26" y="314.11" width="70" height="30" as="geometry" />
        </mxCell>
        <mxCell id="wbXpezz0VNGxaIe4ll2v-70" value="&lt;font style=&quot;font-size: 13px ; font-weight: normal&quot;&gt;时钟&lt;/font&gt;" style="text;strokeColor=none;fillColor=none;html=1;fontSize=24;fontStyle=1;verticalAlign=middle;align=center;" vertex="1" parent="1">
          <mxGeometry x="1005" y="168" width="70" height="30" as="geometry" />
        </mxCell>
        <mxCell id="wbXpezz0VNGxaIe4ll2v-74" value="" style="rounded=0;whiteSpace=wrap;html=1;aspect=fixed;" vertex="1" parent="1">
          <mxGeometry x="984.5" y="64" width="111" height="111" as="geometry" />
        </mxCell>
        <mxCell id="wbXpezz0VNGxaIe4ll2v-75" value="" style="rounded=0;whiteSpace=wrap;html=1;aspect=fixed;" vertex="1" parent="1">
          <mxGeometry x="984.76" y="206" width="111" height="111" as="geometry" />
        </mxCell>
        <mxCell id="wbXpezz0VNGxaIe4ll2v-76" value="" style="rounded=0;whiteSpace=wrap;html=1;" vertex="1" parent="1">
          <mxGeometry x="1421" y="46.5" width="190" height="320" as="geometry" />
        </mxCell>
        <mxCell id="wbXpezz0VNGxaIe4ll2v-78" value="" style="rounded=0;whiteSpace=wrap;html=1;" vertex="1" parent="1">
          <mxGeometry x="1231" y="46.5" width="190" height="320" as="geometry" />
        </mxCell>
        <mxCell id="wbXpezz0VNGxaIe4ll2v-79" value="" style="verticalLabelPosition=bottom;verticalAlign=top;html=1;shadow=0;dashed=0;strokeWidth=1;shape=mxgraph.android.keyboard;" vertex="1" parent="1">
          <mxGeometry x="1233.5" y="262.5" width="185" height="100" as="geometry" />
        </mxCell>
        <mxCell id="wbXpezz0VNGxaIe4ll2v-80" value="" style="html=1;strokeWidth=1;shadow=0;dashed=0;shape=mxgraph.ios7ui.callout;strokeColor=none;fillColor=#E7E6EC;align=left;verticalAlign=middle;fontSize=7;spacingLeft=17;fontColor=#000000;spacingTop=2;whiteSpace=wrap;resizeWidth=1;" vertex="1" parent="1">
          <mxGeometry x="1263.5" y="81.5" width="90" height="20" as="geometry">
            <mxPoint x="5" y="15" as="offset" />
          </mxGeometry>
        </mxCell>
        <mxCell id="wbXpezz0VNGxaIe4ll2v-81" value="&lt;div style=&quot;text-align: justify&quot;&gt;&lt;br&gt;&lt;/div&gt;" style="html=1;strokeWidth=1;shadow=0;dashed=0;shape=mxgraph.ios7ui.callout;strokeColor=none;fillColor=#0680FF;flipH=1;align=center;verticalAlign=top;fontSize=7;spacingLeft=2;fontColor=#ffffff;spacingTop=-2;whiteSpace=wrap;spacingRight=12;resizeWidth=1;" vertex="1" parent="1">
          <mxGeometry x="1301" y="119" width="87.5" height="25" as="geometry">
            <mxPoint y="40" as="offset" />
          </mxGeometry>
        </mxCell>
        <mxCell id="wbXpezz0VNGxaIe4ll2v-82" value="" style="verticalLabelPosition=bottom;shadow=0;dashed=0;align=center;html=1;verticalAlign=top;strokeWidth=1;shape=mxgraph.mockup.containers.userMale;strokeColor=#666666;strokeColor2=#008cff;" vertex="1" parent="1">
          <mxGeometry x="1233.5" y="76.5" width="30" height="30" as="geometry" />
        </mxCell>
        <mxCell id="wbXpezz0VNGxaIe4ll2v-83" value="" style="verticalLabelPosition=bottom;shadow=0;dashed=0;align=center;html=1;verticalAlign=top;strokeWidth=1;shape=mxgraph.mockup.containers.userFemale;strokeColor=#666666;strokeColor2=#008cff;" vertex="1" parent="1">
          <mxGeometry x="1388.5" y="114" width="30" height="30" as="geometry" />
        </mxCell>
        <mxCell id="wbXpezz0VNGxaIe4ll2v-84" value="" style="html=1;strokeWidth=1;shadow=0;dashed=0;shape=mxgraph.ios7ui.callout;strokeColor=none;fillColor=#E7E6EC;align=left;verticalAlign=middle;fontSize=7;spacingLeft=17;fontColor=#000000;spacingTop=2;whiteSpace=wrap;resizeWidth=1;" vertex="1" parent="1">
          <mxGeometry x="1263.5" y="161.5" width="90" height="20" as="geometry">
            <mxPoint x="5" y="15" as="offset" />
          </mxGeometry>
        </mxCell>
        <mxCell id="wbXpezz0VNGxaIe4ll2v-85" value="" style="verticalLabelPosition=bottom;shadow=0;dashed=0;align=center;html=1;verticalAlign=top;strokeWidth=1;shape=mxgraph.mockup.containers.userMale;strokeColor=#666666;strokeColor2=#008cff;" vertex="1" parent="1">
          <mxGeometry x="1233.5" y="156.5" width="30" height="30" as="geometry" />
        </mxCell>
        <mxCell id="wbXpezz0VNGxaIe4ll2v-86" value="&lt;div style=&quot;text-align: justify&quot;&gt;&lt;br&gt;&lt;/div&gt;" style="html=1;strokeWidth=1;shadow=0;dashed=0;shape=mxgraph.ios7ui.callout;strokeColor=none;fillColor=#0680FF;flipH=1;align=center;verticalAlign=top;fontSize=7;spacingLeft=2;fontColor=#ffffff;spacingTop=-2;whiteSpace=wrap;spacingRight=12;resizeWidth=1;" vertex="1" parent="1">
          <mxGeometry x="1301" y="196.5" width="87.5" height="25" as="geometry">
            <mxPoint y="40" as="offset" />
          </mxGeometry>
        </mxCell>
        <mxCell id="wbXpezz0VNGxaIe4ll2v-87" value="" style="verticalLabelPosition=bottom;shadow=0;dashed=0;align=center;html=1;verticalAlign=top;strokeWidth=1;shape=mxgraph.mockup.containers.userFemale;strokeColor=#666666;strokeColor2=#008cff;" vertex="1" parent="1">
          <mxGeometry x="1388.5" y="191.5" width="30" height="30" as="geometry" />
        </mxCell>
        <mxCell id="wbXpezz0VNGxaIe4ll2v-88" value="xxxxxxxx" style="text;html=1;strokeColor=none;fillColor=none;align=center;verticalAlign=middle;whiteSpace=wrap;rounded=0;" vertex="1" parent="1">
          <mxGeometry x="1281" y="81.5" width="60" height="20" as="geometry" />
        </mxCell>
        <mxCell id="wbXpezz0VNGxaIe4ll2v-89" value="xxxxxxxx" style="text;html=1;strokeColor=none;fillColor=none;align=center;verticalAlign=middle;whiteSpace=wrap;rounded=0;" vertex="1" parent="1">
          <mxGeometry x="1311" y="124" width="60" height="20" as="geometry" />
        </mxCell>
        <mxCell id="wbXpezz0VNGxaIe4ll2v-90" value="xxxxxxxx" style="text;html=1;strokeColor=none;fillColor=none;align=center;verticalAlign=middle;whiteSpace=wrap;rounded=0;" vertex="1" parent="1">
          <mxGeometry x="1281" y="161.5" width="60" height="20" as="geometry" />
        </mxCell>
        <mxCell id="wbXpezz0VNGxaIe4ll2v-91" value="xxxxxxxx" style="text;html=1;strokeColor=none;fillColor=none;align=center;verticalAlign=middle;whiteSpace=wrap;rounded=0;" vertex="1" parent="1">
          <mxGeometry x="1311" y="201.5" width="60" height="20" as="geometry" />
        </mxCell>
        <mxCell id="wbXpezz0VNGxaIe4ll2v-92" value="" style="line;strokeWidth=1;html=1;" vertex="1" parent="1">
          <mxGeometry x="1231" y="66.5" width="190" height="10" as="geometry" />
        </mxCell>
        <mxCell id="wbXpezz0VNGxaIe4ll2v-93" value="&lt;font style=&quot;font-weight: normal ; font-size: 13px&quot;&gt;联系人1&lt;/font&gt;" style="text;strokeColor=none;fillColor=none;html=1;fontSize=24;fontStyle=1;verticalAlign=middle;align=center;" vertex="1" parent="1">
          <mxGeometry x="1291" y="40.5" width="70" height="30" as="geometry" />
        </mxCell>
        <mxCell id="wbXpezz0VNGxaIe4ll2v-94" value="&lt;span style=&quot;font-weight: normal&quot;&gt;&lt;font style=&quot;font-size: 18px&quot;&gt;...&lt;/font&gt;&lt;/span&gt;" style="text;strokeColor=none;fillColor=none;html=1;fontSize=24;fontStyle=1;verticalAlign=middle;align=center;" vertex="1" parent="1">
          <mxGeometry x="1391" y="35.5" width="30" height="40" as="geometry" />
        </mxCell>
        <mxCell id="wbXpezz0VNGxaIe4ll2v-95" value="&lt;span style=&quot;font-weight: normal&quot;&gt;&lt;font style=&quot;font-size: 18px&quot;&gt;&amp;lt;&lt;/font&gt;&lt;/span&gt;" style="text;strokeColor=none;fillColor=none;html=1;fontSize=24;fontStyle=1;verticalAlign=middle;align=center;" vertex="1" parent="1">
          <mxGeometry x="1231" y="36.5" width="30" height="40" as="geometry" />
        </mxCell>
        <mxCell id="wbXpezz0VNGxaIe4ll2v-96" value="&lt;font style=&quot;font-size: 13px ; font-weight: normal&quot;&gt;时钟&lt;/font&gt;" style="text;strokeColor=none;fillColor=none;html=1;fontSize=24;fontStyle=1;verticalAlign=middle;align=center;" vertex="1" parent="1">
          <mxGeometry x="1480.7800000000002" y="156.5" width="70" height="30" as="geometry" />
        </mxCell>
        <mxCell id="wbXpezz0VNGxaIe4ll2v-97" value="&lt;span style=&quot;font-size: 13px ; font-weight: 400&quot;&gt;天气&lt;/span&gt;" style="text;strokeColor=none;fillColor=none;html=1;fontSize=24;fontStyle=1;verticalAlign=middle;align=center;" vertex="1" parent="1">
          <mxGeometry x="1478.5" y="274.5" width="70" height="30" as="geometry" />
        </mxCell>
        <mxCell id="wbXpezz0VNGxaIe4ll2v-99" value="" style="rounded=0;whiteSpace=wrap;html=1;" vertex="1" parent="1">
          <mxGeometry x="1424.5" y="75.5" width="183" height="85" as="geometry" />
        </mxCell>
        <mxCell id="wbXpezz0VNGxaIe4ll2v-100" value="" style="rounded=0;whiteSpace=wrap;html=1;" vertex="1" parent="1">
          <mxGeometry x="1424.5" y="196.5" width="183" height="85" as="geometry" />
        </mxCell>
        <mxCell id="wbXpezz0VNGxaIe4ll2v-101" value="" style="rounded=0;whiteSpace=wrap;html=1;" vertex="1" parent="1">
          <mxGeometry x="1868.5" y="54.5" width="190" height="320" as="geometry" />
        </mxCell>
        <mxCell id="wbXpezz0VNGxaIe4ll2v-102" value="" style="verticalLabelPosition=bottom;verticalAlign=top;html=1;shadow=0;dashed=0;strokeWidth=1;shape=mxgraph.android.time_picker_dark;aspect=fixed;" vertex="1" parent="1">
          <mxGeometry x="2073.5" y="76.5" width="185" height="283.67" as="geometry" />
        </mxCell>
        <mxCell id="wbXpezz0VNGxaIe4ll2v-103" value="" style="rounded=0;whiteSpace=wrap;html=1;" vertex="1" parent="1">
          <mxGeometry x="1678.5" y="54.5" width="190" height="320" as="geometry" />
        </mxCell>
        <mxCell id="wbXpezz0VNGxaIe4ll2v-104" value="" style="verticalLabelPosition=bottom;verticalAlign=top;html=1;shadow=0;dashed=0;strokeWidth=1;shape=mxgraph.android.keyboard;" vertex="1" parent="1">
          <mxGeometry x="1681" y="270.5" width="185" height="100" as="geometry" />
        </mxCell>
        <mxCell id="wbXpezz0VNGxaIe4ll2v-105" value="" style="html=1;strokeWidth=1;shadow=0;dashed=0;shape=mxgraph.ios7ui.callout;strokeColor=none;fillColor=#E7E6EC;align=left;verticalAlign=middle;fontSize=7;spacingLeft=17;fontColor=#000000;spacingTop=2;whiteSpace=wrap;resizeWidth=1;" vertex="1" parent="1">
          <mxGeometry x="1711" y="89.5" width="90" height="20" as="geometry">
            <mxPoint x="5" y="15" as="offset" />
          </mxGeometry>
        </mxCell>
        <mxCell id="wbXpezz0VNGxaIe4ll2v-106" value="&lt;div style=&quot;text-align: justify&quot;&gt;&lt;br&gt;&lt;/div&gt;" style="html=1;strokeWidth=1;shadow=0;dashed=0;shape=mxgraph.ios7ui.callout;strokeColor=none;fillColor=#0680FF;flipH=1;align=center;verticalAlign=top;fontSize=7;spacingLeft=2;fontColor=#ffffff;spacingTop=-2;whiteSpace=wrap;spacingRight=12;resizeWidth=1;" vertex="1" parent="1">
          <mxGeometry x="1748.5" y="127" width="87.5" height="25" as="geometry">
            <mxPoint y="40" as="offset" />
          </mxGeometry>
        </mxCell>
        <mxCell id="wbXpezz0VNGxaIe4ll2v-107" value="" style="verticalLabelPosition=bottom;shadow=0;dashed=0;align=center;html=1;verticalAlign=top;strokeWidth=1;shape=mxgraph.mockup.containers.userMale;strokeColor=#666666;strokeColor2=#008cff;" vertex="1" parent="1">
          <mxGeometry x="1681" y="84.5" width="30" height="30" as="geometry" />
        </mxCell>
        <mxCell id="wbXpezz0VNGxaIe4ll2v-108" value="" style="verticalLabelPosition=bottom;shadow=0;dashed=0;align=center;html=1;verticalAlign=top;strokeWidth=1;shape=mxgraph.mockup.containers.userFemale;strokeColor=#666666;strokeColor2=#008cff;" vertex="1" parent="1">
          <mxGeometry x="1836" y="122" width="30" height="30" as="geometry" />
        </mxCell>
        <mxCell id="wbXpezz0VNGxaIe4ll2v-109" value="" style="html=1;strokeWidth=1;shadow=0;dashed=0;shape=mxgraph.ios7ui.callout;strokeColor=none;fillColor=#E7E6EC;align=left;verticalAlign=middle;fontSize=7;spacingLeft=17;fontColor=#000000;spacingTop=2;whiteSpace=wrap;resizeWidth=1;" vertex="1" parent="1">
          <mxGeometry x="1711" y="169.5" width="90" height="20" as="geometry">
            <mxPoint x="5" y="15" as="offset" />
          </mxGeometry>
        </mxCell>
        <mxCell id="wbXpezz0VNGxaIe4ll2v-110" value="" style="verticalLabelPosition=bottom;shadow=0;dashed=0;align=center;html=1;verticalAlign=top;strokeWidth=1;shape=mxgraph.mockup.containers.userMale;strokeColor=#666666;strokeColor2=#008cff;" vertex="1" parent="1">
          <mxGeometry x="1681" y="164.5" width="30" height="30" as="geometry" />
        </mxCell>
        <mxCell id="wbXpezz0VNGxaIe4ll2v-111" value="&lt;div style=&quot;text-align: justify&quot;&gt;&lt;br&gt;&lt;/div&gt;" style="html=1;strokeWidth=1;shadow=0;dashed=0;shape=mxgraph.ios7ui.callout;strokeColor=none;fillColor=#0680FF;flipH=1;align=center;verticalAlign=top;fontSize=7;spacingLeft=2;fontColor=#ffffff;spacingTop=-2;whiteSpace=wrap;spacingRight=12;resizeWidth=1;" vertex="1" parent="1">
          <mxGeometry x="1748.5" y="204.5" width="87.5" height="25" as="geometry">
            <mxPoint y="40" as="offset" />
          </mxGeometry>
        </mxCell>
        <mxCell id="wbXpezz0VNGxaIe4ll2v-112" value="" style="verticalLabelPosition=bottom;shadow=0;dashed=0;align=center;html=1;verticalAlign=top;strokeWidth=1;shape=mxgraph.mockup.containers.userFemale;strokeColor=#666666;strokeColor2=#008cff;" vertex="1" parent="1">
          <mxGeometry x="1836" y="199.5" width="30" height="30" as="geometry" />
        </mxCell>
        <mxCell id="wbXpezz0VNGxaIe4ll2v-113" value="xxxxxxxx" style="text;html=1;strokeColor=none;fillColor=none;align=center;verticalAlign=middle;whiteSpace=wrap;rounded=0;" vertex="1" parent="1">
          <mxGeometry x="1728.5" y="89.5" width="60" height="20" as="geometry" />
        </mxCell>
        <mxCell id="wbXpezz0VNGxaIe4ll2v-114" value="xxxxxxxx" style="text;html=1;strokeColor=none;fillColor=none;align=center;verticalAlign=middle;whiteSpace=wrap;rounded=0;" vertex="1" parent="1">
          <mxGeometry x="1758.5" y="132" width="60" height="20" as="geometry" />
        </mxCell>
        <mxCell id="wbXpezz0VNGxaIe4ll2v-115" value="xxxxxxxx" style="text;html=1;strokeColor=none;fillColor=none;align=center;verticalAlign=middle;whiteSpace=wrap;rounded=0;" vertex="1" parent="1">
          <mxGeometry x="1728.5" y="169.5" width="60" height="20" as="geometry" />
        </mxCell>
        <mxCell id="wbXpezz0VNGxaIe4ll2v-116" value="xxxxxxxx" style="text;html=1;strokeColor=none;fillColor=none;align=center;verticalAlign=middle;whiteSpace=wrap;rounded=0;" vertex="1" parent="1">
          <mxGeometry x="1758.5" y="209.5" width="60" height="20" as="geometry" />
        </mxCell>
        <mxCell id="wbXpezz0VNGxaIe4ll2v-117" value="" style="line;strokeWidth=1;html=1;" vertex="1" parent="1">
          <mxGeometry x="1678.5" y="74.5" width="190" height="10" as="geometry" />
        </mxCell>
        <mxCell id="wbXpezz0VNGxaIe4ll2v-118" value="&lt;font style=&quot;font-weight: normal ; font-size: 13px&quot;&gt;联系人1&lt;/font&gt;" style="text;strokeColor=none;fillColor=none;html=1;fontSize=24;fontStyle=1;verticalAlign=middle;align=center;" vertex="1" parent="1">
          <mxGeometry x="1738.5" y="48.5" width="70" height="30" as="geometry" />
        </mxCell>
        <mxCell id="wbXpezz0VNGxaIe4ll2v-119" value="&lt;span style=&quot;font-weight: normal&quot;&gt;&lt;font style=&quot;font-size: 18px&quot;&gt;...&lt;/font&gt;&lt;/span&gt;" style="text;strokeColor=none;fillColor=none;html=1;fontSize=24;fontStyle=1;verticalAlign=middle;align=center;" vertex="1" parent="1">
          <mxGeometry x="1838.5" y="43.5" width="30" height="40" as="geometry" />
        </mxCell>
        <mxCell id="wbXpezz0VNGxaIe4ll2v-120" value="&lt;span style=&quot;font-weight: normal&quot;&gt;&lt;font style=&quot;font-size: 18px&quot;&gt;&amp;lt;&lt;/font&gt;&lt;/span&gt;" style="text;strokeColor=none;fillColor=none;html=1;fontSize=24;fontStyle=1;verticalAlign=middle;align=center;" vertex="1" parent="1">
          <mxGeometry x="1678.5" y="44.5" width="30" height="40" as="geometry" />
        </mxCell>
        <mxCell id="wbXpezz0VNGxaIe4ll2v-122" value="" style="rounded=0;whiteSpace=wrap;html=1;" vertex="1" parent="1">
          <mxGeometry x="1873.5" y="79.5" width="181" height="270" as="geometry" />
        </mxCell>
        <mxCell id="wbXpezz0VNGxaIe4ll2v-123" value="&lt;font style=&quot;font-size: 13px ; font-weight: normal&quot;&gt;时钟&lt;/font&gt;" style="text;strokeColor=none;fillColor=none;html=1;fontSize=24;fontStyle=1;verticalAlign=middle;align=center;" vertex="1" parent="1">
          <mxGeometry x="1928.5" y="340.5" width="70" height="30" as="geometry" />
        </mxCell>
        <mxCell id="wbXpezz0VNGxaIe4ll2v-124" value="" style="ellipse;whiteSpace=wrap;html=1;aspect=fixed;" vertex="1" parent="1">
          <mxGeometry x="1879.5" y="89.5" width="168" height="168" as="geometry" />
        </mxCell>
        <mxCell id="wbXpezz0VNGxaIe4ll2v-125" value="" style="rounded=0;whiteSpace=wrap;html=1;" vertex="1" parent="1">
          <mxGeometry x="552.5" y="478" width="60" height="320" as="geometry" />
        </mxCell>
        <mxCell id="wbXpezz0VNGxaIe4ll2v-126" value="" style="rounded=0;whiteSpace=wrap;html=1;" vertex="1" parent="1">
          <mxGeometry x="362.5" y="478" width="190" height="320" as="geometry" />
        </mxCell>
        <mxCell id="wbXpezz0VNGxaIe4ll2v-127" value="" style="verticalLabelPosition=bottom;verticalAlign=top;html=1;shadow=0;dashed=0;strokeWidth=1;shape=mxgraph.android.keyboard;" vertex="1" parent="1">
          <mxGeometry x="365" y="694" width="185" height="100" as="geometry" />
        </mxCell>
        <mxCell id="wbXpezz0VNGxaIe4ll2v-128" value="" style="html=1;strokeWidth=1;shadow=0;dashed=0;shape=mxgraph.ios7ui.callout;strokeColor=none;fillColor=#E7E6EC;align=left;verticalAlign=middle;fontSize=7;spacingLeft=17;fontColor=#000000;spacingTop=2;whiteSpace=wrap;resizeWidth=1;" vertex="1" parent="1">
          <mxGeometry x="395" y="513" width="90" height="20" as="geometry">
            <mxPoint x="5" y="15" as="offset" />
          </mxGeometry>
        </mxCell>
        <mxCell id="wbXpezz0VNGxaIe4ll2v-129" value="&lt;div style=&quot;text-align: justify&quot;&gt;&lt;br&gt;&lt;/div&gt;" style="html=1;strokeWidth=1;shadow=0;dashed=0;shape=mxgraph.ios7ui.callout;strokeColor=none;fillColor=#0680FF;flipH=1;align=center;verticalAlign=top;fontSize=7;spacingLeft=2;fontColor=#ffffff;spacingTop=-2;whiteSpace=wrap;spacingRight=12;resizeWidth=1;" vertex="1" parent="1">
          <mxGeometry x="432.5" y="550.5" width="87.5" height="25" as="geometry">
            <mxPoint y="40" as="offset" />
          </mxGeometry>
        </mxCell>
        <mxCell id="wbXpezz0VNGxaIe4ll2v-130" value="" style="verticalLabelPosition=bottom;shadow=0;dashed=0;align=center;html=1;verticalAlign=top;strokeWidth=1;shape=mxgraph.mockup.containers.userMale;strokeColor=#666666;strokeColor2=#008cff;" vertex="1" parent="1">
          <mxGeometry x="365" y="508" width="30" height="30" as="geometry" />
        </mxCell>
        <mxCell id="wbXpezz0VNGxaIe4ll2v-131" value="" style="verticalLabelPosition=bottom;shadow=0;dashed=0;align=center;html=1;verticalAlign=top;strokeWidth=1;shape=mxgraph.mockup.containers.userFemale;strokeColor=#666666;strokeColor2=#008cff;" vertex="1" parent="1">
          <mxGeometry x="520" y="545.5" width="30" height="30" as="geometry" />
        </mxCell>
        <mxCell id="wbXpezz0VNGxaIe4ll2v-132" value="" style="html=1;strokeWidth=1;shadow=0;dashed=0;shape=mxgraph.ios7ui.callout;strokeColor=none;fillColor=#E7E6EC;align=left;verticalAlign=middle;fontSize=7;spacingLeft=17;fontColor=#000000;spacingTop=2;whiteSpace=wrap;resizeWidth=1;" vertex="1" parent="1">
          <mxGeometry x="395" y="593" width="90" height="20" as="geometry">
            <mxPoint x="5" y="15" as="offset" />
          </mxGeometry>
        </mxCell>
        <mxCell id="wbXpezz0VNGxaIe4ll2v-133" value="" style="verticalLabelPosition=bottom;shadow=0;dashed=0;align=center;html=1;verticalAlign=top;strokeWidth=1;shape=mxgraph.mockup.containers.userMale;strokeColor=#666666;strokeColor2=#008cff;" vertex="1" parent="1">
          <mxGeometry x="365" y="588" width="30" height="30" as="geometry" />
        </mxCell>
        <mxCell id="wbXpezz0VNGxaIe4ll2v-134" value="&lt;div style=&quot;text-align: justify&quot;&gt;&lt;br&gt;&lt;/div&gt;" style="html=1;strokeWidth=1;shadow=0;dashed=0;shape=mxgraph.ios7ui.callout;strokeColor=none;fillColor=#0680FF;flipH=1;align=center;verticalAlign=top;fontSize=7;spacingLeft=2;fontColor=#ffffff;spacingTop=-2;whiteSpace=wrap;spacingRight=12;resizeWidth=1;" vertex="1" parent="1">
          <mxGeometry x="432.5" y="628" width="87.5" height="25" as="geometry">
            <mxPoint y="40" as="offset" />
          </mxGeometry>
        </mxCell>
        <mxCell id="wbXpezz0VNGxaIe4ll2v-135" value="" style="verticalLabelPosition=bottom;shadow=0;dashed=0;align=center;html=1;verticalAlign=top;strokeWidth=1;shape=mxgraph.mockup.containers.userFemale;strokeColor=#666666;strokeColor2=#008cff;" vertex="1" parent="1">
          <mxGeometry x="520" y="623" width="30" height="30" as="geometry" />
        </mxCell>
        <mxCell id="wbXpezz0VNGxaIe4ll2v-136" value="xxxxxxxx" style="text;html=1;strokeColor=none;fillColor=none;align=center;verticalAlign=middle;whiteSpace=wrap;rounded=0;" vertex="1" parent="1">
          <mxGeometry x="412.5" y="513" width="60" height="20" as="geometry" />
        </mxCell>
        <mxCell id="wbXpezz0VNGxaIe4ll2v-137" value="xxxxxxxx" style="text;html=1;strokeColor=none;fillColor=none;align=center;verticalAlign=middle;whiteSpace=wrap;rounded=0;" vertex="1" parent="1">
          <mxGeometry x="442.5" y="555.5" width="60" height="20" as="geometry" />
        </mxCell>
        <mxCell id="wbXpezz0VNGxaIe4ll2v-138" value="xxxxxxxx" style="text;html=1;strokeColor=none;fillColor=none;align=center;verticalAlign=middle;whiteSpace=wrap;rounded=0;" vertex="1" parent="1">
          <mxGeometry x="412.5" y="593" width="60" height="20" as="geometry" />
        </mxCell>
        <mxCell id="wbXpezz0VNGxaIe4ll2v-139" value="xxxxxxxx" style="text;html=1;strokeColor=none;fillColor=none;align=center;verticalAlign=middle;whiteSpace=wrap;rounded=0;" vertex="1" parent="1">
          <mxGeometry x="442.5" y="633" width="60" height="20" as="geometry" />
        </mxCell>
        <mxCell id="wbXpezz0VNGxaIe4ll2v-140" value="" style="line;strokeWidth=1;html=1;" vertex="1" parent="1">
          <mxGeometry x="362.5" y="498" width="190" height="10" as="geometry" />
        </mxCell>
        <mxCell id="wbXpezz0VNGxaIe4ll2v-141" value="&lt;font style=&quot;font-weight: normal ; font-size: 13px&quot;&gt;联系人1&lt;/font&gt;" style="text;strokeColor=none;fillColor=none;html=1;fontSize=24;fontStyle=1;verticalAlign=middle;align=center;" vertex="1" parent="1">
          <mxGeometry x="422.5" y="472" width="70" height="30" as="geometry" />
        </mxCell>
        <mxCell id="wbXpezz0VNGxaIe4ll2v-142" value="&lt;span style=&quot;font-weight: normal&quot;&gt;&lt;font style=&quot;font-size: 18px&quot;&gt;...&lt;/font&gt;&lt;/span&gt;" style="text;strokeColor=none;fillColor=none;html=1;fontSize=24;fontStyle=1;verticalAlign=middle;align=center;" vertex="1" parent="1">
          <mxGeometry x="522.5" y="467" width="30" height="40" as="geometry" />
        </mxCell>
        <mxCell id="wbXpezz0VNGxaIe4ll2v-143" value="&lt;span style=&quot;font-weight: normal&quot;&gt;&lt;font style=&quot;font-size: 18px&quot;&gt;&amp;lt;&lt;/font&gt;&lt;/span&gt;" style="text;strokeColor=none;fillColor=none;html=1;fontSize=24;fontStyle=1;verticalAlign=middle;align=center;" vertex="1" parent="1">
          <mxGeometry x="362.5" y="468" width="30" height="40" as="geometry" />
        </mxCell>
        <mxCell id="wbXpezz0VNGxaIe4ll2v-148" value="App1" style="rounded=0;whiteSpace=wrap;html=1;aspect=fixed;" vertex="1" parent="1">
          <mxGeometry x="564.12" y="488" width="35" height="35" as="geometry" />
        </mxCell>
        <mxCell id="wbXpezz0VNGxaIe4ll2v-152" value="App2" style="rounded=0;whiteSpace=wrap;html=1;aspect=fixed;" vertex="1" parent="1">
          <mxGeometry x="564.12" y="538" width="35" height="35" as="geometry" />
        </mxCell>
        <mxCell id="wbXpezz0VNGxaIe4ll2v-153" value="App3" style="rounded=0;whiteSpace=wrap;html=1;aspect=fixed;" vertex="1" parent="1">
          <mxGeometry x="564.12" y="588" width="35" height="35" as="geometry" />
        </mxCell>
        <mxCell id="wbXpezz0VNGxaIe4ll2v-154" value="App4" style="rounded=0;whiteSpace=wrap;html=1;aspect=fixed;" vertex="1" parent="1">
          <mxGeometry x="563.75" y="638" width="35" height="35" as="geometry" />
        </mxCell>
        <mxCell id="wbXpezz0VNGxaIe4ll2v-155" value="App5" style="rounded=0;whiteSpace=wrap;html=1;aspect=fixed;" vertex="1" parent="1">
          <mxGeometry x="563.75" y="688" width="35" height="35" as="geometry" />
        </mxCell>
        <mxCell id="wbXpezz0VNGxaIe4ll2v-156" value="App6" style="rounded=0;whiteSpace=wrap;html=1;aspect=fixed;" vertex="1" parent="1">
          <mxGeometry x="563.75" y="738" width="35" height="35" as="geometry" />
        </mxCell>
        <mxCell id="wbXpezz0VNGxaIe4ll2v-157" value="" style="rounded=0;whiteSpace=wrap;html=1;" vertex="1" parent="1">
          <mxGeometry x="833.5" y="483" width="105" height="320" as="geometry" />
        </mxCell>
        <mxCell id="wbXpezz0VNGxaIe4ll2v-158" value="" style="rounded=0;whiteSpace=wrap;html=1;" vertex="1" parent="1">
          <mxGeometry x="643.5" y="483" width="190" height="320" as="geometry" />
        </mxCell>
        <mxCell id="wbXpezz0VNGxaIe4ll2v-159" value="" style="verticalLabelPosition=bottom;verticalAlign=top;html=1;shadow=0;dashed=0;strokeWidth=1;shape=mxgraph.android.keyboard;" vertex="1" parent="1">
          <mxGeometry x="646" y="699" width="185" height="100" as="geometry" />
        </mxCell>
        <mxCell id="wbXpezz0VNGxaIe4ll2v-160" value="" style="html=1;strokeWidth=1;shadow=0;dashed=0;shape=mxgraph.ios7ui.callout;strokeColor=none;fillColor=#E7E6EC;align=left;verticalAlign=middle;fontSize=7;spacingLeft=17;fontColor=#000000;spacingTop=2;whiteSpace=wrap;resizeWidth=1;" vertex="1" parent="1">
          <mxGeometry x="676" y="518" width="90" height="20" as="geometry">
            <mxPoint x="5" y="15" as="offset" />
          </mxGeometry>
        </mxCell>
        <mxCell id="wbXpezz0VNGxaIe4ll2v-161" value="&lt;div style=&quot;text-align: justify&quot;&gt;&lt;br&gt;&lt;/div&gt;" style="html=1;strokeWidth=1;shadow=0;dashed=0;shape=mxgraph.ios7ui.callout;strokeColor=none;fillColor=#0680FF;flipH=1;align=center;verticalAlign=top;fontSize=7;spacingLeft=2;fontColor=#ffffff;spacingTop=-2;whiteSpace=wrap;spacingRight=12;resizeWidth=1;" vertex="1" parent="1">
          <mxGeometry x="713.5" y="555.5" width="87.5" height="25" as="geometry">
            <mxPoint y="40" as="offset" />
          </mxGeometry>
        </mxCell>
        <mxCell id="wbXpezz0VNGxaIe4ll2v-162" value="" style="verticalLabelPosition=bottom;shadow=0;dashed=0;align=center;html=1;verticalAlign=top;strokeWidth=1;shape=mxgraph.mockup.containers.userMale;strokeColor=#666666;strokeColor2=#008cff;" vertex="1" parent="1">
          <mxGeometry x="646" y="513" width="30" height="30" as="geometry" />
        </mxCell>
        <mxCell id="wbXpezz0VNGxaIe4ll2v-163" value="" style="verticalLabelPosition=bottom;shadow=0;dashed=0;align=center;html=1;verticalAlign=top;strokeWidth=1;shape=mxgraph.mockup.containers.userFemale;strokeColor=#666666;strokeColor2=#008cff;" vertex="1" parent="1">
          <mxGeometry x="801" y="550.5" width="30" height="30" as="geometry" />
        </mxCell>
        <mxCell id="wbXpezz0VNGxaIe4ll2v-164" value="" style="html=1;strokeWidth=1;shadow=0;dashed=0;shape=mxgraph.ios7ui.callout;strokeColor=none;fillColor=#E7E6EC;align=left;verticalAlign=middle;fontSize=7;spacingLeft=17;fontColor=#000000;spacingTop=2;whiteSpace=wrap;resizeWidth=1;" vertex="1" parent="1">
          <mxGeometry x="676" y="598" width="90" height="20" as="geometry">
            <mxPoint x="5" y="15" as="offset" />
          </mxGeometry>
        </mxCell>
        <mxCell id="wbXpezz0VNGxaIe4ll2v-165" value="" style="verticalLabelPosition=bottom;shadow=0;dashed=0;align=center;html=1;verticalAlign=top;strokeWidth=1;shape=mxgraph.mockup.containers.userMale;strokeColor=#666666;strokeColor2=#008cff;" vertex="1" parent="1">
          <mxGeometry x="646" y="593" width="30" height="30" as="geometry" />
        </mxCell>
        <mxCell id="wbXpezz0VNGxaIe4ll2v-166" value="&lt;div style=&quot;text-align: justify&quot;&gt;&lt;br&gt;&lt;/div&gt;" style="html=1;strokeWidth=1;shadow=0;dashed=0;shape=mxgraph.ios7ui.callout;strokeColor=none;fillColor=#0680FF;flipH=1;align=center;verticalAlign=top;fontSize=7;spacingLeft=2;fontColor=#ffffff;spacingTop=-2;whiteSpace=wrap;spacingRight=12;resizeWidth=1;" vertex="1" parent="1">
          <mxGeometry x="713.5" y="633" width="87.5" height="25" as="geometry">
            <mxPoint y="40" as="offset" />
          </mxGeometry>
        </mxCell>
        <mxCell id="wbXpezz0VNGxaIe4ll2v-167" value="" style="verticalLabelPosition=bottom;shadow=0;dashed=0;align=center;html=1;verticalAlign=top;strokeWidth=1;shape=mxgraph.mockup.containers.userFemale;strokeColor=#666666;strokeColor2=#008cff;" vertex="1" parent="1">
          <mxGeometry x="801" y="628" width="30" height="30" as="geometry" />
        </mxCell>
        <mxCell id="wbXpezz0VNGxaIe4ll2v-168" value="xxxxxxxx" style="text;html=1;strokeColor=none;fillColor=none;align=center;verticalAlign=middle;whiteSpace=wrap;rounded=0;" vertex="1" parent="1">
          <mxGeometry x="693.5" y="518" width="60" height="20" as="geometry" />
        </mxCell>
        <mxCell id="wbXpezz0VNGxaIe4ll2v-169" value="xxxxxxxx" style="text;html=1;strokeColor=none;fillColor=none;align=center;verticalAlign=middle;whiteSpace=wrap;rounded=0;" vertex="1" parent="1">
          <mxGeometry x="723.5" y="560.5" width="60" height="20" as="geometry" />
        </mxCell>
        <mxCell id="wbXpezz0VNGxaIe4ll2v-170" value="xxxxxxxx" style="text;html=1;strokeColor=none;fillColor=none;align=center;verticalAlign=middle;whiteSpace=wrap;rounded=0;" vertex="1" parent="1">
          <mxGeometry x="693.5" y="598" width="60" height="20" as="geometry" />
        </mxCell>
        <mxCell id="wbXpezz0VNGxaIe4ll2v-171" value="xxxxxxxx" style="text;html=1;strokeColor=none;fillColor=none;align=center;verticalAlign=middle;whiteSpace=wrap;rounded=0;" vertex="1" parent="1">
          <mxGeometry x="723.5" y="638" width="60" height="20" as="geometry" />
        </mxCell>
        <mxCell id="wbXpezz0VNGxaIe4ll2v-172" value="" style="line;strokeWidth=1;html=1;" vertex="1" parent="1">
          <mxGeometry x="643.5" y="503" width="190" height="10" as="geometry" />
        </mxCell>
        <mxCell id="wbXpezz0VNGxaIe4ll2v-173" value="&lt;font style=&quot;font-weight: normal ; font-size: 13px&quot;&gt;联系人1&lt;/font&gt;" style="text;strokeColor=none;fillColor=none;html=1;fontSize=24;fontStyle=1;verticalAlign=middle;align=center;" vertex="1" parent="1">
          <mxGeometry x="703.5" y="477" width="70" height="30" as="geometry" />
        </mxCell>
        <mxCell id="wbXpezz0VNGxaIe4ll2v-174" value="&lt;span style=&quot;font-weight: normal&quot;&gt;&lt;font style=&quot;font-size: 18px&quot;&gt;...&lt;/font&gt;&lt;/span&gt;" style="text;strokeColor=none;fillColor=none;html=1;fontSize=24;fontStyle=1;verticalAlign=middle;align=center;" vertex="1" parent="1">
          <mxGeometry x="803.5" y="472" width="30" height="40" as="geometry" />
        </mxCell>
        <mxCell id="wbXpezz0VNGxaIe4ll2v-175" value="&lt;span style=&quot;font-weight: normal&quot;&gt;&lt;font style=&quot;font-size: 18px&quot;&gt;&amp;lt;&lt;/font&gt;&lt;/span&gt;" style="text;strokeColor=none;fillColor=none;html=1;fontSize=24;fontStyle=1;verticalAlign=middle;align=center;" vertex="1" parent="1">
          <mxGeometry x="643.5" y="473" width="30" height="40" as="geometry" />
        </mxCell>
        <mxCell id="wbXpezz0VNGxaIe4ll2v-176" value="App1" style="rounded=0;whiteSpace=wrap;html=1;aspect=fixed;" vertex="1" parent="1">
          <mxGeometry x="845.12" y="493" width="35" height="35" as="geometry" />
        </mxCell>
        <mxCell id="wbXpezz0VNGxaIe4ll2v-177" value="App2" style="rounded=0;whiteSpace=wrap;html=1;aspect=fixed;" vertex="1" parent="1">
          <mxGeometry x="845.12" y="543" width="35" height="35" as="geometry" />
        </mxCell>
        <mxCell id="wbXpezz0VNGxaIe4ll2v-178" value="App3" style="rounded=0;whiteSpace=wrap;html=1;aspect=fixed;" vertex="1" parent="1">
          <mxGeometry x="845.12" y="593" width="35" height="35" as="geometry" />
        </mxCell>
        <mxCell id="wbXpezz0VNGxaIe4ll2v-179" value="App4" style="rounded=0;whiteSpace=wrap;html=1;aspect=fixed;" vertex="1" parent="1">
          <mxGeometry x="844.75" y="643" width="35" height="35" as="geometry" />
        </mxCell>
        <mxCell id="wbXpezz0VNGxaIe4ll2v-180" value="App5" style="rounded=0;whiteSpace=wrap;html=1;aspect=fixed;" vertex="1" parent="1">
          <mxGeometry x="844.75" y="693" width="35" height="35" as="geometry" />
        </mxCell>
        <mxCell id="wbXpezz0VNGxaIe4ll2v-181" value="App6" style="rounded=0;whiteSpace=wrap;html=1;aspect=fixed;" vertex="1" parent="1">
          <mxGeometry x="844.75" y="743" width="35" height="35" as="geometry" />
        </mxCell>
        <mxCell id="wbXpezz0VNGxaIe4ll2v-182" value="App7" style="rounded=0;whiteSpace=wrap;html=1;aspect=fixed;" vertex="1" parent="1">
          <mxGeometry x="892.5" y="493" width="35" height="35" as="geometry" />
        </mxCell>
        <mxCell id="wbXpezz0VNGxaIe4ll2v-183" value="App8" style="rounded=0;whiteSpace=wrap;html=1;aspect=fixed;" vertex="1" parent="1">
          <mxGeometry x="892.5" y="543" width="35" height="35" as="geometry" />
        </mxCell>
        <mxCell id="wbXpezz0VNGxaIe4ll2v-184" value="App9" style="rounded=0;whiteSpace=wrap;html=1;aspect=fixed;" vertex="1" parent="1">
          <mxGeometry x="892.5" y="593" width="35" height="35" as="geometry" />
        </mxCell>
        <mxCell id="wbXpezz0VNGxaIe4ll2v-185" value="" style="rounded=0;whiteSpace=wrap;html=1;" vertex="1" parent="1">
          <mxGeometry x="1227.5" y="483" width="120" height="320" as="geometry" />
        </mxCell>
        <mxCell id="wbXpezz0VNGxaIe4ll2v-186" value="" style="rounded=0;whiteSpace=wrap;html=1;" vertex="1" parent="1">
          <mxGeometry x="1037.5" y="483" width="190" height="320" as="geometry" />
        </mxCell>
        <mxCell id="wbXpezz0VNGxaIe4ll2v-187" value="" style="verticalLabelPosition=bottom;verticalAlign=top;html=1;shadow=0;dashed=0;strokeWidth=1;shape=mxgraph.android.keyboard;" vertex="1" parent="1">
          <mxGeometry x="1040" y="699" width="185" height="100" as="geometry" />
        </mxCell>
        <mxCell id="wbXpezz0VNGxaIe4ll2v-188" value="" style="html=1;strokeWidth=1;shadow=0;dashed=0;shape=mxgraph.ios7ui.callout;strokeColor=none;fillColor=#E7E6EC;align=left;verticalAlign=middle;fontSize=7;spacingLeft=17;fontColor=#000000;spacingTop=2;whiteSpace=wrap;resizeWidth=1;" vertex="1" parent="1">
          <mxGeometry x="1070" y="518" width="90" height="20" as="geometry">
            <mxPoint x="5" y="15" as="offset" />
          </mxGeometry>
        </mxCell>
        <mxCell id="wbXpezz0VNGxaIe4ll2v-189" value="&lt;div style=&quot;text-align: justify&quot;&gt;&lt;br&gt;&lt;/div&gt;" style="html=1;strokeWidth=1;shadow=0;dashed=0;shape=mxgraph.ios7ui.callout;strokeColor=none;fillColor=#0680FF;flipH=1;align=center;verticalAlign=top;fontSize=7;spacingLeft=2;fontColor=#ffffff;spacingTop=-2;whiteSpace=wrap;spacingRight=12;resizeWidth=1;" vertex="1" parent="1">
          <mxGeometry x="1107.5" y="555.5" width="87.5" height="25" as="geometry">
            <mxPoint y="40" as="offset" />
          </mxGeometry>
        </mxCell>
        <mxCell id="wbXpezz0VNGxaIe4ll2v-190" value="" style="verticalLabelPosition=bottom;shadow=0;dashed=0;align=center;html=1;verticalAlign=top;strokeWidth=1;shape=mxgraph.mockup.containers.userMale;strokeColor=#666666;strokeColor2=#008cff;" vertex="1" parent="1">
          <mxGeometry x="1040" y="513" width="30" height="30" as="geometry" />
        </mxCell>
        <mxCell id="wbXpezz0VNGxaIe4ll2v-191" value="" style="verticalLabelPosition=bottom;shadow=0;dashed=0;align=center;html=1;verticalAlign=top;strokeWidth=1;shape=mxgraph.mockup.containers.userFemale;strokeColor=#666666;strokeColor2=#008cff;" vertex="1" parent="1">
          <mxGeometry x="1195" y="550.5" width="30" height="30" as="geometry" />
        </mxCell>
        <mxCell id="wbXpezz0VNGxaIe4ll2v-192" value="" style="html=1;strokeWidth=1;shadow=0;dashed=0;shape=mxgraph.ios7ui.callout;strokeColor=none;fillColor=#E7E6EC;align=left;verticalAlign=middle;fontSize=7;spacingLeft=17;fontColor=#000000;spacingTop=2;whiteSpace=wrap;resizeWidth=1;" vertex="1" parent="1">
          <mxGeometry x="1070" y="598" width="90" height="20" as="geometry">
            <mxPoint x="5" y="15" as="offset" />
          </mxGeometry>
        </mxCell>
        <mxCell id="wbXpezz0VNGxaIe4ll2v-193" value="" style="verticalLabelPosition=bottom;shadow=0;dashed=0;align=center;html=1;verticalAlign=top;strokeWidth=1;shape=mxgraph.mockup.containers.userMale;strokeColor=#666666;strokeColor2=#008cff;" vertex="1" parent="1">
          <mxGeometry x="1040" y="593" width="30" height="30" as="geometry" />
        </mxCell>
        <mxCell id="wbXpezz0VNGxaIe4ll2v-194" value="&lt;div style=&quot;text-align: justify&quot;&gt;&lt;br&gt;&lt;/div&gt;" style="html=1;strokeWidth=1;shadow=0;dashed=0;shape=mxgraph.ios7ui.callout;strokeColor=none;fillColor=#0680FF;flipH=1;align=center;verticalAlign=top;fontSize=7;spacingLeft=2;fontColor=#ffffff;spacingTop=-2;whiteSpace=wrap;spacingRight=12;resizeWidth=1;" vertex="1" parent="1">
          <mxGeometry x="1107.5" y="633" width="87.5" height="25" as="geometry">
            <mxPoint y="40" as="offset" />
          </mxGeometry>
        </mxCell>
        <mxCell id="wbXpezz0VNGxaIe4ll2v-195" value="" style="verticalLabelPosition=bottom;shadow=0;dashed=0;align=center;html=1;verticalAlign=top;strokeWidth=1;shape=mxgraph.mockup.containers.userFemale;strokeColor=#666666;strokeColor2=#008cff;" vertex="1" parent="1">
          <mxGeometry x="1195" y="628" width="30" height="30" as="geometry" />
        </mxCell>
        <mxCell id="wbXpezz0VNGxaIe4ll2v-196" value="xxxxxxxx" style="text;html=1;strokeColor=none;fillColor=none;align=center;verticalAlign=middle;whiteSpace=wrap;rounded=0;" vertex="1" parent="1">
          <mxGeometry x="1087.5" y="518" width="60" height="20" as="geometry" />
        </mxCell>
        <mxCell id="wbXpezz0VNGxaIe4ll2v-197" value="xxxxxxxx" style="text;html=1;strokeColor=none;fillColor=none;align=center;verticalAlign=middle;whiteSpace=wrap;rounded=0;" vertex="1" parent="1">
          <mxGeometry x="1117.5" y="560.5" width="60" height="20" as="geometry" />
        </mxCell>
        <mxCell id="wbXpezz0VNGxaIe4ll2v-198" value="xxxxxxxx" style="text;html=1;strokeColor=none;fillColor=none;align=center;verticalAlign=middle;whiteSpace=wrap;rounded=0;" vertex="1" parent="1">
          <mxGeometry x="1087.5" y="598" width="60" height="20" as="geometry" />
        </mxCell>
        <mxCell id="wbXpezz0VNGxaIe4ll2v-199" value="xxxxxxxx" style="text;html=1;strokeColor=none;fillColor=none;align=center;verticalAlign=middle;whiteSpace=wrap;rounded=0;" vertex="1" parent="1">
          <mxGeometry x="1117.5" y="638" width="60" height="20" as="geometry" />
        </mxCell>
        <mxCell id="wbXpezz0VNGxaIe4ll2v-200" value="" style="line;strokeWidth=1;html=1;" vertex="1" parent="1">
          <mxGeometry x="1037.5" y="503" width="190" height="10" as="geometry" />
        </mxCell>
        <mxCell id="wbXpezz0VNGxaIe4ll2v-201" value="&lt;font style=&quot;font-weight: normal ; font-size: 13px&quot;&gt;联系人1&lt;/font&gt;" style="text;strokeColor=none;fillColor=none;html=1;fontSize=24;fontStyle=1;verticalAlign=middle;align=center;" vertex="1" parent="1">
          <mxGeometry x="1097.5" y="477" width="70" height="30" as="geometry" />
        </mxCell>
        <mxCell id="wbXpezz0VNGxaIe4ll2v-202" value="&lt;span style=&quot;font-weight: normal&quot;&gt;&lt;font style=&quot;font-size: 18px&quot;&gt;&amp;lt;&lt;/font&gt;&lt;/span&gt;" style="text;strokeColor=none;fillColor=none;html=1;fontSize=24;fontStyle=1;verticalAlign=middle;align=center;" vertex="1" parent="1">
          <mxGeometry x="1037.5" y="473" width="30" height="40" as="geometry" />
        </mxCell>
        <mxCell id="wbXpezz0VNGxaIe4ll2v-205" value="App1&lt;br&gt;小组件（2*2）" style="rounded=0;whiteSpace=wrap;html=1;aspect=fixed;" vertex="1" parent="1">
          <mxGeometry x="1233.5" y="494.5" width="111" height="111" as="geometry" />
        </mxCell>
        <mxCell id="wbXpezz0VNGxaIe4ll2v-206" value="App2&lt;br&gt;小组件（2*2）" style="rounded=0;whiteSpace=wrap;html=1;aspect=fixed;" vertex="1" parent="1">
          <mxGeometry x="1233.5" y="618" width="111" height="111" as="geometry" />
        </mxCell>
        <mxCell id="wbXpezz0VNGxaIe4ll2v-207" value="" style="rounded=0;whiteSpace=wrap;html=1;" vertex="1" parent="1">
          <mxGeometry x="1655" y="493.5" width="190" height="320" as="geometry" />
        </mxCell>
        <mxCell id="wbXpezz0VNGxaIe4ll2v-208" value="" style="rounded=0;whiteSpace=wrap;html=1;" vertex="1" parent="1">
          <mxGeometry x="1465" y="493.5" width="190" height="320" as="geometry" />
        </mxCell>
        <mxCell id="wbXpezz0VNGxaIe4ll2v-209" value="" style="verticalLabelPosition=bottom;verticalAlign=top;html=1;shadow=0;dashed=0;strokeWidth=1;shape=mxgraph.android.keyboard;" vertex="1" parent="1">
          <mxGeometry x="1467.5" y="709.5" width="185" height="100" as="geometry" />
        </mxCell>
        <mxCell id="wbXpezz0VNGxaIe4ll2v-210" value="" style="html=1;strokeWidth=1;shadow=0;dashed=0;shape=mxgraph.ios7ui.callout;strokeColor=none;fillColor=#E7E6EC;align=left;verticalAlign=middle;fontSize=7;spacingLeft=17;fontColor=#000000;spacingTop=2;whiteSpace=wrap;resizeWidth=1;" vertex="1" parent="1">
          <mxGeometry x="1497.5" y="528.5" width="90" height="20" as="geometry">
            <mxPoint x="5" y="15" as="offset" />
          </mxGeometry>
        </mxCell>
        <mxCell id="wbXpezz0VNGxaIe4ll2v-211" value="&lt;div style=&quot;text-align: justify&quot;&gt;&lt;br&gt;&lt;/div&gt;" style="html=1;strokeWidth=1;shadow=0;dashed=0;shape=mxgraph.ios7ui.callout;strokeColor=none;fillColor=#0680FF;flipH=1;align=center;verticalAlign=top;fontSize=7;spacingLeft=2;fontColor=#ffffff;spacingTop=-2;whiteSpace=wrap;spacingRight=12;resizeWidth=1;" vertex="1" parent="1">
          <mxGeometry x="1535" y="566" width="87.5" height="25" as="geometry">
            <mxPoint y="40" as="offset" />
          </mxGeometry>
        </mxCell>
        <mxCell id="wbXpezz0VNGxaIe4ll2v-212" value="" style="verticalLabelPosition=bottom;shadow=0;dashed=0;align=center;html=1;verticalAlign=top;strokeWidth=1;shape=mxgraph.mockup.containers.userMale;strokeColor=#666666;strokeColor2=#008cff;" vertex="1" parent="1">
          <mxGeometry x="1467.5" y="523.5" width="30" height="30" as="geometry" />
        </mxCell>
        <mxCell id="wbXpezz0VNGxaIe4ll2v-213" value="" style="verticalLabelPosition=bottom;shadow=0;dashed=0;align=center;html=1;verticalAlign=top;strokeWidth=1;shape=mxgraph.mockup.containers.userFemale;strokeColor=#666666;strokeColor2=#008cff;" vertex="1" parent="1">
          <mxGeometry x="1622.5" y="561" width="30" height="30" as="geometry" />
        </mxCell>
        <mxCell id="wbXpezz0VNGxaIe4ll2v-214" value="" style="html=1;strokeWidth=1;shadow=0;dashed=0;shape=mxgraph.ios7ui.callout;strokeColor=none;fillColor=#E7E6EC;align=left;verticalAlign=middle;fontSize=7;spacingLeft=17;fontColor=#000000;spacingTop=2;whiteSpace=wrap;resizeWidth=1;" vertex="1" parent="1">
          <mxGeometry x="1497.5" y="608.5" width="90" height="20" as="geometry">
            <mxPoint x="5" y="15" as="offset" />
          </mxGeometry>
        </mxCell>
        <mxCell id="wbXpezz0VNGxaIe4ll2v-215" value="" style="verticalLabelPosition=bottom;shadow=0;dashed=0;align=center;html=1;verticalAlign=top;strokeWidth=1;shape=mxgraph.mockup.containers.userMale;strokeColor=#666666;strokeColor2=#008cff;" vertex="1" parent="1">
          <mxGeometry x="1467.5" y="603.5" width="30" height="30" as="geometry" />
        </mxCell>
        <mxCell id="wbXpezz0VNGxaIe4ll2v-216" value="&lt;div style=&quot;text-align: justify&quot;&gt;&lt;br&gt;&lt;/div&gt;" style="html=1;strokeWidth=1;shadow=0;dashed=0;shape=mxgraph.ios7ui.callout;strokeColor=none;fillColor=#0680FF;flipH=1;align=center;verticalAlign=top;fontSize=7;spacingLeft=2;fontColor=#ffffff;spacingTop=-2;whiteSpace=wrap;spacingRight=12;resizeWidth=1;" vertex="1" parent="1">
          <mxGeometry x="1535" y="643.5" width="87.5" height="25" as="geometry">
            <mxPoint y="40" as="offset" />
          </mxGeometry>
        </mxCell>
        <mxCell id="wbXpezz0VNGxaIe4ll2v-217" value="" style="verticalLabelPosition=bottom;shadow=0;dashed=0;align=center;html=1;verticalAlign=top;strokeWidth=1;shape=mxgraph.mockup.containers.userFemale;strokeColor=#666666;strokeColor2=#008cff;" vertex="1" parent="1">
          <mxGeometry x="1622.5" y="638.5" width="30" height="30" as="geometry" />
        </mxCell>
        <mxCell id="wbXpezz0VNGxaIe4ll2v-218" value="xxxxxxxx" style="text;html=1;strokeColor=none;fillColor=none;align=center;verticalAlign=middle;whiteSpace=wrap;rounded=0;" vertex="1" parent="1">
          <mxGeometry x="1515" y="528.5" width="60" height="20" as="geometry" />
        </mxCell>
        <mxCell id="wbXpezz0VNGxaIe4ll2v-219" value="xxxxxxxx" style="text;html=1;strokeColor=none;fillColor=none;align=center;verticalAlign=middle;whiteSpace=wrap;rounded=0;" vertex="1" parent="1">
          <mxGeometry x="1545" y="571" width="60" height="20" as="geometry" />
        </mxCell>
        <mxCell id="wbXpezz0VNGxaIe4ll2v-220" value="xxxxxxxx" style="text;html=1;strokeColor=none;fillColor=none;align=center;verticalAlign=middle;whiteSpace=wrap;rounded=0;" vertex="1" parent="1">
          <mxGeometry x="1515" y="608.5" width="60" height="20" as="geometry" />
        </mxCell>
        <mxCell id="wbXpezz0VNGxaIe4ll2v-221" value="xxxxxxxx" style="text;html=1;strokeColor=none;fillColor=none;align=center;verticalAlign=middle;whiteSpace=wrap;rounded=0;" vertex="1" parent="1">
          <mxGeometry x="1545" y="648.5" width="60" height="20" as="geometry" />
        </mxCell>
        <mxCell id="wbXpezz0VNGxaIe4ll2v-222" value="" style="line;strokeWidth=1;html=1;" vertex="1" parent="1">
          <mxGeometry x="1465" y="513.5" width="190" height="10" as="geometry" />
        </mxCell>
        <mxCell id="wbXpezz0VNGxaIe4ll2v-223" value="&lt;font style=&quot;font-weight: normal ; font-size: 13px&quot;&gt;联系人1&lt;/font&gt;" style="text;strokeColor=none;fillColor=none;html=1;fontSize=24;fontStyle=1;verticalAlign=middle;align=center;" vertex="1" parent="1">
          <mxGeometry x="1525" y="487.5" width="70" height="30" as="geometry" />
        </mxCell>
        <mxCell id="wbXpezz0VNGxaIe4ll2v-224" value="&lt;span style=&quot;font-weight: normal&quot;&gt;&lt;font style=&quot;font-size: 18px&quot;&gt;...&lt;/font&gt;&lt;/span&gt;" style="text;strokeColor=none;fillColor=none;html=1;fontSize=24;fontStyle=1;verticalAlign=middle;align=center;" vertex="1" parent="1">
          <mxGeometry x="1625" y="482.5" width="30" height="40" as="geometry" />
        </mxCell>
        <mxCell id="wbXpezz0VNGxaIe4ll2v-225" value="&lt;span style=&quot;font-weight: normal&quot;&gt;&lt;font style=&quot;font-size: 18px&quot;&gt;&amp;lt;&lt;/font&gt;&lt;/span&gt;" style="text;strokeColor=none;fillColor=none;html=1;fontSize=24;fontStyle=1;verticalAlign=middle;align=center;" vertex="1" parent="1">
          <mxGeometry x="1465" y="483.5" width="30" height="40" as="geometry" />
        </mxCell>
        <mxCell id="wbXpezz0VNGxaIe4ll2v-228" value="&lt;span&gt;App1&lt;/span&gt;&lt;br&gt;&lt;span&gt;小组件（4*2）&lt;/span&gt;" style="rounded=0;whiteSpace=wrap;html=1;" vertex="1" parent="1">
          <mxGeometry x="1658.5" y="522.5" width="183" height="97.5" as="geometry" />
        </mxCell>
        <mxCell id="wbXpezz0VNGxaIe4ll2v-229" value="&lt;span&gt;App2&lt;/span&gt;&lt;br&gt;&lt;span&gt;小组件（4*2）&lt;/span&gt;" style="rounded=0;whiteSpace=wrap;html=1;" vertex="1" parent="1">
          <mxGeometry x="1658.5" y="643.5" width="183" height="99.5" as="geometry" />
        </mxCell>
        <mxCell id="wbXpezz0VNGxaIe4ll2v-230" value="" style="rounded=0;whiteSpace=wrap;html=1;" vertex="1" parent="1">
          <mxGeometry x="2142" y="494.5" width="190" height="320" as="geometry" />
        </mxCell>
        <mxCell id="wbXpezz0VNGxaIe4ll2v-231" value="" style="rounded=0;whiteSpace=wrap;html=1;" vertex="1" parent="1">
          <mxGeometry x="1952" y="494.5" width="190" height="320" as="geometry" />
        </mxCell>
        <mxCell id="wbXpezz0VNGxaIe4ll2v-232" value="" style="verticalLabelPosition=bottom;verticalAlign=top;html=1;shadow=0;dashed=0;strokeWidth=1;shape=mxgraph.android.keyboard;" vertex="1" parent="1">
          <mxGeometry x="1954.5" y="710.5" width="185" height="100" as="geometry" />
        </mxCell>
        <mxCell id="wbXpezz0VNGxaIe4ll2v-233" value="" style="html=1;strokeWidth=1;shadow=0;dashed=0;shape=mxgraph.ios7ui.callout;strokeColor=none;fillColor=#E7E6EC;align=left;verticalAlign=middle;fontSize=7;spacingLeft=17;fontColor=#000000;spacingTop=2;whiteSpace=wrap;resizeWidth=1;" vertex="1" parent="1">
          <mxGeometry x="1984.5" y="529.5" width="90" height="20" as="geometry">
            <mxPoint x="5" y="15" as="offset" />
          </mxGeometry>
        </mxCell>
        <mxCell id="wbXpezz0VNGxaIe4ll2v-234" value="&lt;div style=&quot;text-align: justify&quot;&gt;&lt;br&gt;&lt;/div&gt;" style="html=1;strokeWidth=1;shadow=0;dashed=0;shape=mxgraph.ios7ui.callout;strokeColor=none;fillColor=#0680FF;flipH=1;align=center;verticalAlign=top;fontSize=7;spacingLeft=2;fontColor=#ffffff;spacingTop=-2;whiteSpace=wrap;spacingRight=12;resizeWidth=1;" vertex="1" parent="1">
          <mxGeometry x="2022" y="567" width="87.5" height="25" as="geometry">
            <mxPoint y="40" as="offset" />
          </mxGeometry>
        </mxCell>
        <mxCell id="wbXpezz0VNGxaIe4ll2v-235" value="" style="verticalLabelPosition=bottom;shadow=0;dashed=0;align=center;html=1;verticalAlign=top;strokeWidth=1;shape=mxgraph.mockup.containers.userMale;strokeColor=#666666;strokeColor2=#008cff;" vertex="1" parent="1">
          <mxGeometry x="1954.5" y="524.5" width="30" height="30" as="geometry" />
        </mxCell>
        <mxCell id="wbXpezz0VNGxaIe4ll2v-236" value="" style="verticalLabelPosition=bottom;shadow=0;dashed=0;align=center;html=1;verticalAlign=top;strokeWidth=1;shape=mxgraph.mockup.containers.userFemale;strokeColor=#666666;strokeColor2=#008cff;" vertex="1" parent="1">
          <mxGeometry x="2109.5" y="562" width="30" height="30" as="geometry" />
        </mxCell>
        <mxCell id="wbXpezz0VNGxaIe4ll2v-237" value="" style="html=1;strokeWidth=1;shadow=0;dashed=0;shape=mxgraph.ios7ui.callout;strokeColor=none;fillColor=#E7E6EC;align=left;verticalAlign=middle;fontSize=7;spacingLeft=17;fontColor=#000000;spacingTop=2;whiteSpace=wrap;resizeWidth=1;" vertex="1" parent="1">
          <mxGeometry x="1984.5" y="609.5" width="90" height="20" as="geometry">
            <mxPoint x="5" y="15" as="offset" />
          </mxGeometry>
        </mxCell>
        <mxCell id="wbXpezz0VNGxaIe4ll2v-238" value="" style="verticalLabelPosition=bottom;shadow=0;dashed=0;align=center;html=1;verticalAlign=top;strokeWidth=1;shape=mxgraph.mockup.containers.userMale;strokeColor=#666666;strokeColor2=#008cff;" vertex="1" parent="1">
          <mxGeometry x="1954.5" y="604.5" width="30" height="30" as="geometry" />
        </mxCell>
        <mxCell id="wbXpezz0VNGxaIe4ll2v-239" value="&lt;div style=&quot;text-align: justify&quot;&gt;&lt;br&gt;&lt;/div&gt;" style="html=1;strokeWidth=1;shadow=0;dashed=0;shape=mxgraph.ios7ui.callout;strokeColor=none;fillColor=#0680FF;flipH=1;align=center;verticalAlign=top;fontSize=7;spacingLeft=2;fontColor=#ffffff;spacingTop=-2;whiteSpace=wrap;spacingRight=12;resizeWidth=1;" vertex="1" parent="1">
          <mxGeometry x="2022" y="644.5" width="87.5" height="25" as="geometry">
            <mxPoint y="40" as="offset" />
          </mxGeometry>
        </mxCell>
        <mxCell id="wbXpezz0VNGxaIe4ll2v-240" value="" style="verticalLabelPosition=bottom;shadow=0;dashed=0;align=center;html=1;verticalAlign=top;strokeWidth=1;shape=mxgraph.mockup.containers.userFemale;strokeColor=#666666;strokeColor2=#008cff;" vertex="1" parent="1">
          <mxGeometry x="2109.5" y="639.5" width="30" height="30" as="geometry" />
        </mxCell>
        <mxCell id="wbXpezz0VNGxaIe4ll2v-241" value="xxxxxxxx" style="text;html=1;strokeColor=none;fillColor=none;align=center;verticalAlign=middle;whiteSpace=wrap;rounded=0;" vertex="1" parent="1">
          <mxGeometry x="2002" y="529.5" width="60" height="20" as="geometry" />
        </mxCell>
        <mxCell id="wbXpezz0VNGxaIe4ll2v-242" value="xxxxxxxx" style="text;html=1;strokeColor=none;fillColor=none;align=center;verticalAlign=middle;whiteSpace=wrap;rounded=0;" vertex="1" parent="1">
          <mxGeometry x="2032" y="572" width="60" height="20" as="geometry" />
        </mxCell>
        <mxCell id="wbXpezz0VNGxaIe4ll2v-243" value="xxxxxxxx" style="text;html=1;strokeColor=none;fillColor=none;align=center;verticalAlign=middle;whiteSpace=wrap;rounded=0;" vertex="1" parent="1">
          <mxGeometry x="2002" y="609.5" width="60" height="20" as="geometry" />
        </mxCell>
        <mxCell id="wbXpezz0VNGxaIe4ll2v-244" value="xxxxxxxx" style="text;html=1;strokeColor=none;fillColor=none;align=center;verticalAlign=middle;whiteSpace=wrap;rounded=0;" vertex="1" parent="1">
          <mxGeometry x="2032" y="649.5" width="60" height="20" as="geometry" />
        </mxCell>
        <mxCell id="wbXpezz0VNGxaIe4ll2v-245" value="" style="line;strokeWidth=1;html=1;" vertex="1" parent="1">
          <mxGeometry x="1952" y="514.5" width="190" height="10" as="geometry" />
        </mxCell>
        <mxCell id="wbXpezz0VNGxaIe4ll2v-246" value="&lt;font style=&quot;font-weight: normal ; font-size: 13px&quot;&gt;联系人1&lt;/font&gt;" style="text;strokeColor=none;fillColor=none;html=1;fontSize=24;fontStyle=1;verticalAlign=middle;align=center;" vertex="1" parent="1">
          <mxGeometry x="2012" y="488.5" width="70" height="30" as="geometry" />
        </mxCell>
        <mxCell id="wbXpezz0VNGxaIe4ll2v-247" value="&lt;span style=&quot;font-weight: normal&quot;&gt;&lt;font style=&quot;font-size: 18px&quot;&gt;...&lt;/font&gt;&lt;/span&gt;" style="text;strokeColor=none;fillColor=none;html=1;fontSize=24;fontStyle=1;verticalAlign=middle;align=center;" vertex="1" parent="1">
          <mxGeometry x="2112" y="483.5" width="30" height="40" as="geometry" />
        </mxCell>
        <mxCell id="wbXpezz0VNGxaIe4ll2v-248" value="&lt;span style=&quot;font-weight: normal&quot;&gt;&lt;font style=&quot;font-size: 18px&quot;&gt;&amp;lt;&lt;/font&gt;&lt;/span&gt;" style="text;strokeColor=none;fillColor=none;html=1;fontSize=24;fontStyle=1;verticalAlign=middle;align=center;" vertex="1" parent="1">
          <mxGeometry x="1952" y="484.5" width="30" height="40" as="geometry" />
        </mxCell>
        <mxCell id="wbXpezz0VNGxaIe4ll2v-249" value="&lt;span&gt;App1&lt;/span&gt;&lt;br&gt;（全屏）" style="rounded=0;whiteSpace=wrap;html=1;" vertex="1" parent="1">
          <mxGeometry x="2145.5" y="499" width="183" height="312" as="geometry" />
        </mxCell>
        <mxCell id="twxLrlgCtxtxjb9tiOBU-1" value="" style="rounded=0;whiteSpace=wrap;html=1;" vertex="1" parent="1">
          <mxGeometry x="550" y="839" width="60" height="320" as="geometry" />
        </mxCell>
        <mxCell id="twxLrlgCtxtxjb9tiOBU-2" value="" style="rounded=0;whiteSpace=wrap;html=1;" vertex="1" parent="1">
          <mxGeometry x="360" y="839" width="190" height="320" as="geometry" />
        </mxCell>
        <mxCell id="twxLrlgCtxtxjb9tiOBU-20" value="App1" style="rounded=0;whiteSpace=wrap;html=1;aspect=fixed;" vertex="1" parent="1">
          <mxGeometry x="561.62" y="849" width="35" height="35" as="geometry" />
        </mxCell>
        <mxCell id="twxLrlgCtxtxjb9tiOBU-21" value="App2" style="rounded=0;whiteSpace=wrap;html=1;aspect=fixed;" vertex="1" parent="1">
          <mxGeometry x="561.62" y="899" width="35" height="35" as="geometry" />
        </mxCell>
        <mxCell id="twxLrlgCtxtxjb9tiOBU-22" value="App3" style="rounded=0;whiteSpace=wrap;html=1;aspect=fixed;" vertex="1" parent="1">
          <mxGeometry x="561.62" y="949" width="35" height="35" as="geometry" />
        </mxCell>
        <mxCell id="twxLrlgCtxtxjb9tiOBU-23" value="App4" style="rounded=0;whiteSpace=wrap;html=1;aspect=fixed;" vertex="1" parent="1">
          <mxGeometry x="561.25" y="999" width="35" height="35" as="geometry" />
        </mxCell>
        <mxCell id="twxLrlgCtxtxjb9tiOBU-24" value="App5" style="rounded=0;whiteSpace=wrap;html=1;aspect=fixed;" vertex="1" parent="1">
          <mxGeometry x="561.25" y="1049" width="35" height="35" as="geometry" />
        </mxCell>
        <mxCell id="twxLrlgCtxtxjb9tiOBU-25" value="App6" style="rounded=0;whiteSpace=wrap;html=1;aspect=fixed;" vertex="1" parent="1">
          <mxGeometry x="561.25" y="1099" width="35" height="35" as="geometry" />
        </mxCell>
        <mxCell id="twxLrlgCtxtxjb9tiOBU-26" value="App1" style="rounded=0;whiteSpace=wrap;html=1;aspect=fixed;" vertex="1" parent="1">
          <mxGeometry x="371" y="849" width="35" height="35" as="geometry" />
        </mxCell>
        <mxCell id="twxLrlgCtxtxjb9tiOBU-27" value="App2" style="rounded=0;whiteSpace=wrap;html=1;aspect=fixed;" vertex="1" parent="1">
          <mxGeometry x="417" y="849" width="35" height="35" as="geometry" />
        </mxCell>
        <mxCell id="twxLrlgCtxtxjb9tiOBU-28" value="App3" style="rounded=0;whiteSpace=wrap;html=1;aspect=fixed;" vertex="1" parent="1">
          <mxGeometry x="465" y="849" width="35" height="35" as="geometry" />
        </mxCell>
        <mxCell id="twxLrlgCtxtxjb9tiOBU-29" value="App4" style="rounded=0;whiteSpace=wrap;html=1;aspect=fixed;" vertex="1" parent="1">
          <mxGeometry x="509.12" y="849" width="35" height="35" as="geometry" />
        </mxCell>
        <mxCell id="twxLrlgCtxtxjb9tiOBU-30" value="App5" style="rounded=0;whiteSpace=wrap;html=1;aspect=fixed;" vertex="1" parent="1">
          <mxGeometry x="371" y="899" width="35" height="35" as="geometry" />
        </mxCell>
        <mxCell id="twxLrlgCtxtxjb9tiOBU-31" value="App6" style="rounded=0;whiteSpace=wrap;html=1;aspect=fixed;" vertex="1" parent="1">
          <mxGeometry x="417" y="899" width="35" height="35" as="geometry" />
        </mxCell>
        <mxCell id="twxLrlgCtxtxjb9tiOBU-32" value="App7" style="rounded=0;whiteSpace=wrap;html=1;aspect=fixed;" vertex="1" parent="1">
          <mxGeometry x="465" y="899" width="35" height="35" as="geometry" />
        </mxCell>
        <mxCell id="twxLrlgCtxtxjb9tiOBU-33" value="App8" style="rounded=0;whiteSpace=wrap;html=1;aspect=fixed;" vertex="1" parent="1">
          <mxGeometry x="509.12" y="899" width="35" height="35" as="geometry" />
        </mxCell>
        <mxCell id="twxLrlgCtxtxjb9tiOBU-34" value="App9" style="rounded=0;whiteSpace=wrap;html=1;aspect=fixed;" vertex="1" parent="1">
          <mxGeometry x="371" y="949" width="35" height="35" as="geometry" />
        </mxCell>
        <mxCell id="twxLrlgCtxtxjb9tiOBU-35" value="App10" style="rounded=0;whiteSpace=wrap;html=1;aspect=fixed;" vertex="1" parent="1">
          <mxGeometry x="417" y="949" width="35" height="35" as="geometry" />
        </mxCell>
        <mxCell id="twxLrlgCtxtxjb9tiOBU-36" value="App11" style="rounded=0;whiteSpace=wrap;html=1;aspect=fixed;" vertex="1" parent="1">
          <mxGeometry x="465" y="949" width="35" height="35" as="geometry" />
        </mxCell>
        <mxCell id="twxLrlgCtxtxjb9tiOBU-37" value="App12" style="rounded=0;whiteSpace=wrap;html=1;aspect=fixed;" vertex="1" parent="1">
          <mxGeometry x="509.12" y="949" width="35" height="35" as="geometry" />
        </mxCell>
        <mxCell id="twxLrlgCtxtxjb9tiOBU-38" value="App13" style="rounded=0;whiteSpace=wrap;html=1;aspect=fixed;" vertex="1" parent="1">
          <mxGeometry x="371.88" y="999" width="35" height="35" as="geometry" />
        </mxCell>
        <mxCell id="twxLrlgCtxtxjb9tiOBU-39" value="App14" style="rounded=0;whiteSpace=wrap;html=1;aspect=fixed;" vertex="1" parent="1">
          <mxGeometry x="417.88" y="999" width="35" height="35" as="geometry" />
        </mxCell>
        <mxCell id="twxLrlgCtxtxjb9tiOBU-40" value="App15" style="rounded=0;whiteSpace=wrap;html=1;aspect=fixed;" vertex="1" parent="1">
          <mxGeometry x="465.88" y="999" width="35" height="35" as="geometry" />
        </mxCell>
        <mxCell id="twxLrlgCtxtxjb9tiOBU-41" value="App16" style="rounded=0;whiteSpace=wrap;html=1;aspect=fixed;" vertex="1" parent="1">
          <mxGeometry x="510" y="999" width="35" height="35" as="geometry" />
        </mxCell>
        <mxCell id="twxLrlgCtxtxjb9tiOBU-42" value="App1" style="rounded=0;whiteSpace=wrap;html=1;aspect=fixed;" vertex="1" parent="1">
          <mxGeometry x="368" y="1045" width="82" height="82" as="geometry" />
        </mxCell>
        <mxCell id="twxLrlgCtxtxjb9tiOBU-43" value="App2" style="rounded=0;whiteSpace=wrap;html=1;aspect=fixed;" vertex="1" parent="1">
          <mxGeometry x="462.88" y="1045" width="81" height="81" as="geometry" />
        </mxCell>
        <mxCell id="twxLrlgCtxtxjb9tiOBU-44" value="" style="rounded=0;whiteSpace=wrap;html=1;" vertex="1" parent="1">
          <mxGeometry x="367" y="1138" width="176" height="20" as="geometry" />
        </mxCell>
        <mxCell id="twxLrlgCtxtxjb9tiOBU-46" value="" style="rounded=0;whiteSpace=wrap;html=1;" vertex="1" parent="1">
          <mxGeometry x="646" y="838" width="190" height="320" as="geometry" />
        </mxCell>
        <mxCell id="twxLrlgCtxtxjb9tiOBU-53" value="App1" style="rounded=0;whiteSpace=wrap;html=1;aspect=fixed;" vertex="1" parent="1">
          <mxGeometry x="657" y="848" width="35" height="35" as="geometry" />
        </mxCell>
        <mxCell id="twxLrlgCtxtxjb9tiOBU-54" value="App2" style="rounded=0;whiteSpace=wrap;html=1;aspect=fixed;" vertex="1" parent="1">
          <mxGeometry x="703" y="848" width="35" height="35" as="geometry" />
        </mxCell>
        <mxCell id="twxLrlgCtxtxjb9tiOBU-55" value="App3" style="rounded=0;whiteSpace=wrap;html=1;aspect=fixed;" vertex="1" parent="1">
          <mxGeometry x="751" y="848" width="35" height="35" as="geometry" />
        </mxCell>
        <mxCell id="twxLrlgCtxtxjb9tiOBU-56" value="App4" style="rounded=0;whiteSpace=wrap;html=1;aspect=fixed;" vertex="1" parent="1">
          <mxGeometry x="795.12" y="848" width="35" height="35" as="geometry" />
        </mxCell>
        <mxCell id="twxLrlgCtxtxjb9tiOBU-57" value="App5" style="rounded=0;whiteSpace=wrap;html=1;aspect=fixed;" vertex="1" parent="1">
          <mxGeometry x="657" y="898" width="35" height="35" as="geometry" />
        </mxCell>
        <mxCell id="twxLrlgCtxtxjb9tiOBU-58" value="App6" style="rounded=0;whiteSpace=wrap;html=1;aspect=fixed;" vertex="1" parent="1">
          <mxGeometry x="703" y="898" width="35" height="35" as="geometry" />
        </mxCell>
        <mxCell id="twxLrlgCtxtxjb9tiOBU-59" value="App7" style="rounded=0;whiteSpace=wrap;html=1;aspect=fixed;" vertex="1" parent="1">
          <mxGeometry x="751" y="898" width="35" height="35" as="geometry" />
        </mxCell>
        <mxCell id="twxLrlgCtxtxjb9tiOBU-60" value="App8" style="rounded=0;whiteSpace=wrap;html=1;aspect=fixed;" vertex="1" parent="1">
          <mxGeometry x="795.12" y="898" width="35" height="35" as="geometry" />
        </mxCell>
        <mxCell id="twxLrlgCtxtxjb9tiOBU-61" value="App9" style="rounded=0;whiteSpace=wrap;html=1;aspect=fixed;" vertex="1" parent="1">
          <mxGeometry x="657" y="948" width="35" height="35" as="geometry" />
        </mxCell>
        <mxCell id="twxLrlgCtxtxjb9tiOBU-62" value="App10" style="rounded=0;whiteSpace=wrap;html=1;aspect=fixed;" vertex="1" parent="1">
          <mxGeometry x="703" y="948" width="35" height="35" as="geometry" />
        </mxCell>
        <mxCell id="twxLrlgCtxtxjb9tiOBU-63" value="App11" style="rounded=0;whiteSpace=wrap;html=1;aspect=fixed;" vertex="1" parent="1">
          <mxGeometry x="751" y="948" width="35" height="35" as="geometry" />
        </mxCell>
        <mxCell id="twxLrlgCtxtxjb9tiOBU-64" value="App12" style="rounded=0;whiteSpace=wrap;html=1;aspect=fixed;" vertex="1" parent="1">
          <mxGeometry x="795.12" y="948" width="35" height="35" as="geometry" />
        </mxCell>
        <mxCell id="twxLrlgCtxtxjb9tiOBU-65" value="App13" style="rounded=0;whiteSpace=wrap;html=1;aspect=fixed;" vertex="1" parent="1">
          <mxGeometry x="657.88" y="998" width="35" height="35" as="geometry" />
        </mxCell>
        <mxCell id="twxLrlgCtxtxjb9tiOBU-66" value="App14" style="rounded=0;whiteSpace=wrap;html=1;aspect=fixed;" vertex="1" parent="1">
          <mxGeometry x="703.88" y="998" width="35" height="35" as="geometry" />
        </mxCell>
        <mxCell id="twxLrlgCtxtxjb9tiOBU-67" value="App15" style="rounded=0;whiteSpace=wrap;html=1;aspect=fixed;" vertex="1" parent="1">
          <mxGeometry x="751.88" y="998" width="35" height="35" as="geometry" />
        </mxCell>
        <mxCell id="twxLrlgCtxtxjb9tiOBU-68" value="App16" style="rounded=0;whiteSpace=wrap;html=1;aspect=fixed;" vertex="1" parent="1">
          <mxGeometry x="796" y="998" width="35" height="35" as="geometry" />
        </mxCell>
        <mxCell id="twxLrlgCtxtxjb9tiOBU-69" value="App1" style="rounded=0;whiteSpace=wrap;html=1;aspect=fixed;" vertex="1" parent="1">
          <mxGeometry x="654" y="1044" width="82" height="82" as="geometry" />
        </mxCell>
        <mxCell id="twxLrlgCtxtxjb9tiOBU-70" value="App2" style="rounded=0;whiteSpace=wrap;html=1;aspect=fixed;" vertex="1" parent="1">
          <mxGeometry x="748.88" y="1044" width="81" height="81" as="geometry" />
        </mxCell>
        <mxCell id="twxLrlgCtxtxjb9tiOBU-71" value="" style="rounded=0;whiteSpace=wrap;html=1;" vertex="1" parent="1">
          <mxGeometry x="653" y="1137" width="176" height="20" as="geometry" />
        </mxCell>
        <mxCell id="twxLrlgCtxtxjb9tiOBU-72" value="" style="rounded=0;whiteSpace=wrap;html=1;" vertex="1" parent="1">
          <mxGeometry x="836" y="838" width="120" height="320" as="geometry" />
        </mxCell>
        <mxCell id="twxLrlgCtxtxjb9tiOBU-73" value="App1&lt;br&gt;小组件（2*2）" style="rounded=0;whiteSpace=wrap;html=1;aspect=fixed;" vertex="1" parent="1">
          <mxGeometry x="840" y="846" width="111" height="111" as="geometry" />
        </mxCell>
        <mxCell id="twxLrlgCtxtxjb9tiOBU-74" value="App2&lt;br&gt;小组件（2*2）" style="rounded=0;whiteSpace=wrap;html=1;aspect=fixed;" vertex="1" parent="1">
          <mxGeometry x="840.5" y="965" width="111" height="111" as="geometry" />
        </mxCell>
        <mxCell id="twxLrlgCtxtxjb9tiOBU-75" value="App3" style="rounded=0;whiteSpace=wrap;html=1;aspect=fixed;" vertex="1" parent="1">
          <mxGeometry x="845.12" y="1084" width="35" height="35" as="geometry" />
        </mxCell>
        <mxCell id="twxLrlgCtxtxjb9tiOBU-76" value="App4" style="rounded=0;whiteSpace=wrap;html=1;aspect=fixed;" vertex="1" parent="1">
          <mxGeometry x="909" y="1084" width="35" height="35" as="geometry" />
        </mxCell>
        <mxCell id="twxLrlgCtxtxjb9tiOBU-77" value="" style="rounded=0;whiteSpace=wrap;html=1;" vertex="1" parent="1">
          <mxGeometry x="1040" y="844" width="190" height="320" as="geometry" />
        </mxCell>
        <mxCell id="twxLrlgCtxtxjb9tiOBU-78" value="App1" style="rounded=0;whiteSpace=wrap;html=1;aspect=fixed;" vertex="1" parent="1">
          <mxGeometry x="1051" y="854" width="35" height="35" as="geometry" />
        </mxCell>
        <mxCell id="twxLrlgCtxtxjb9tiOBU-79" value="App2" style="rounded=0;whiteSpace=wrap;html=1;aspect=fixed;" vertex="1" parent="1">
          <mxGeometry x="1097" y="854" width="35" height="35" as="geometry" />
        </mxCell>
        <mxCell id="twxLrlgCtxtxjb9tiOBU-80" value="App3" style="rounded=0;whiteSpace=wrap;html=1;aspect=fixed;" vertex="1" parent="1">
          <mxGeometry x="1145" y="854" width="35" height="35" as="geometry" />
        </mxCell>
        <mxCell id="twxLrlgCtxtxjb9tiOBU-81" value="App4" style="rounded=0;whiteSpace=wrap;html=1;aspect=fixed;" vertex="1" parent="1">
          <mxGeometry x="1189.12" y="854" width="35" height="35" as="geometry" />
        </mxCell>
        <mxCell id="twxLrlgCtxtxjb9tiOBU-82" value="App5" style="rounded=0;whiteSpace=wrap;html=1;aspect=fixed;" vertex="1" parent="1">
          <mxGeometry x="1051" y="904" width="35" height="35" as="geometry" />
        </mxCell>
        <mxCell id="twxLrlgCtxtxjb9tiOBU-83" value="App6" style="rounded=0;whiteSpace=wrap;html=1;aspect=fixed;" vertex="1" parent="1">
          <mxGeometry x="1097" y="904" width="35" height="35" as="geometry" />
        </mxCell>
        <mxCell id="twxLrlgCtxtxjb9tiOBU-84" value="App7" style="rounded=0;whiteSpace=wrap;html=1;aspect=fixed;" vertex="1" parent="1">
          <mxGeometry x="1145" y="904" width="35" height="35" as="geometry" />
        </mxCell>
        <mxCell id="twxLrlgCtxtxjb9tiOBU-85" value="App8" style="rounded=0;whiteSpace=wrap;html=1;aspect=fixed;" vertex="1" parent="1">
          <mxGeometry x="1189.12" y="904" width="35" height="35" as="geometry" />
        </mxCell>
        <mxCell id="twxLrlgCtxtxjb9tiOBU-86" value="App9" style="rounded=0;whiteSpace=wrap;html=1;aspect=fixed;" vertex="1" parent="1">
          <mxGeometry x="1051" y="954" width="35" height="35" as="geometry" />
        </mxCell>
        <mxCell id="twxLrlgCtxtxjb9tiOBU-87" value="App10" style="rounded=0;whiteSpace=wrap;html=1;aspect=fixed;" vertex="1" parent="1">
          <mxGeometry x="1097" y="954" width="35" height="35" as="geometry" />
        </mxCell>
        <mxCell id="twxLrlgCtxtxjb9tiOBU-88" value="App11" style="rounded=0;whiteSpace=wrap;html=1;aspect=fixed;" vertex="1" parent="1">
          <mxGeometry x="1145" y="954" width="35" height="35" as="geometry" />
        </mxCell>
        <mxCell id="twxLrlgCtxtxjb9tiOBU-89" value="App12" style="rounded=0;whiteSpace=wrap;html=1;aspect=fixed;" vertex="1" parent="1">
          <mxGeometry x="1189.12" y="954" width="35" height="35" as="geometry" />
        </mxCell>
        <mxCell id="twxLrlgCtxtxjb9tiOBU-90" value="App13" style="rounded=0;whiteSpace=wrap;html=1;aspect=fixed;" vertex="1" parent="1">
          <mxGeometry x="1051.88" y="1004" width="35" height="35" as="geometry" />
        </mxCell>
        <mxCell id="twxLrlgCtxtxjb9tiOBU-91" value="App14" style="rounded=0;whiteSpace=wrap;html=1;aspect=fixed;" vertex="1" parent="1">
          <mxGeometry x="1097.88" y="1004" width="35" height="35" as="geometry" />
        </mxCell>
        <mxCell id="twxLrlgCtxtxjb9tiOBU-92" value="App15" style="rounded=0;whiteSpace=wrap;html=1;aspect=fixed;" vertex="1" parent="1">
          <mxGeometry x="1145.88" y="1004" width="35" height="35" as="geometry" />
        </mxCell>
        <mxCell id="twxLrlgCtxtxjb9tiOBU-93" value="App16" style="rounded=0;whiteSpace=wrap;html=1;aspect=fixed;" vertex="1" parent="1">
          <mxGeometry x="1190" y="1004" width="35" height="35" as="geometry" />
        </mxCell>
        <mxCell id="twxLrlgCtxtxjb9tiOBU-94" value="App1" style="rounded=0;whiteSpace=wrap;html=1;aspect=fixed;" vertex="1" parent="1">
          <mxGeometry x="1048" y="1050" width="82" height="82" as="geometry" />
        </mxCell>
        <mxCell id="twxLrlgCtxtxjb9tiOBU-95" value="App2" style="rounded=0;whiteSpace=wrap;html=1;aspect=fixed;" vertex="1" parent="1">
          <mxGeometry x="1142.88" y="1050" width="81" height="81" as="geometry" />
        </mxCell>
        <mxCell id="twxLrlgCtxtxjb9tiOBU-96" value="" style="rounded=0;whiteSpace=wrap;html=1;" vertex="1" parent="1">
          <mxGeometry x="1047" y="1143" width="176" height="20" as="geometry" />
        </mxCell>
        <mxCell id="twxLrlgCtxtxjb9tiOBU-102" value="" style="rounded=0;whiteSpace=wrap;html=1;" vertex="1" parent="1">
          <mxGeometry x="1230" y="844" width="190" height="320" as="geometry" />
        </mxCell>
        <mxCell id="twxLrlgCtxtxjb9tiOBU-103" value="&lt;span&gt;App1&lt;/span&gt;&lt;br&gt;&lt;span&gt;小组件（4*2）&lt;/span&gt;" style="rounded=0;whiteSpace=wrap;html=1;" vertex="1" parent="1">
          <mxGeometry x="1233.5" y="852.75" width="183" height="97.5" as="geometry" />
        </mxCell>
        <mxCell id="twxLrlgCtxtxjb9tiOBU-104" value="&lt;span&gt;App2&lt;/span&gt;&lt;br&gt;&lt;span&gt;小组件（4*2）&lt;/span&gt;" style="rounded=0;whiteSpace=wrap;html=1;" vertex="1" parent="1">
          <mxGeometry x="1233.5" y="963" width="183" height="99.5" as="geometry" />
        </mxCell>
        <mxCell id="twxLrlgCtxtxjb9tiOBU-109" value="App3" style="rounded=0;whiteSpace=wrap;html=1;aspect=fixed;" vertex="1" parent="1">
          <mxGeometry x="1238.44" y="1076" width="35" height="35" as="geometry" />
        </mxCell>
        <mxCell id="twxLrlgCtxtxjb9tiOBU-110" value="App4" style="rounded=0;whiteSpace=wrap;html=1;aspect=fixed;" vertex="1" parent="1">
          <mxGeometry x="1284.44" y="1076" width="35" height="35" as="geometry" />
        </mxCell>
        <mxCell id="twxLrlgCtxtxjb9tiOBU-111" value="App5" style="rounded=0;whiteSpace=wrap;html=1;aspect=fixed;" vertex="1" parent="1">
          <mxGeometry x="1332.44" y="1076" width="35" height="35" as="geometry" />
        </mxCell>
        <mxCell id="twxLrlgCtxtxjb9tiOBU-112" value="App6" style="rounded=0;whiteSpace=wrap;html=1;aspect=fixed;" vertex="1" parent="1">
          <mxGeometry x="1376.56" y="1076" width="35" height="35" as="geometry" />
        </mxCell>
        <mxCell id="twxLrlgCtxtxjb9tiOBU-113" value="" style="rounded=0;whiteSpace=wrap;html=1;" vertex="1" parent="1">
          <mxGeometry x="1075" y="1232" width="56" height="320" as="geometry" />
        </mxCell>
        <mxCell id="twxLrlgCtxtxjb9tiOBU-114" value="" style="rounded=0;whiteSpace=wrap;html=1;" vertex="1" parent="1">
          <mxGeometry x="885" y="1232" width="190" height="320" as="geometry" />
        </mxCell>
        <mxCell id="twxLrlgCtxtxjb9tiOBU-115" value="" style="verticalLabelPosition=bottom;verticalAlign=top;html=1;shadow=0;dashed=0;strokeWidth=1;shape=mxgraph.android.keyboard;" vertex="1" parent="1">
          <mxGeometry x="887.5" y="1448" width="185" height="100" as="geometry" />
        </mxCell>
        <mxCell id="twxLrlgCtxtxjb9tiOBU-116" value="" style="html=1;strokeWidth=1;shadow=0;dashed=0;shape=mxgraph.ios7ui.callout;strokeColor=none;fillColor=#E7E6EC;align=left;verticalAlign=middle;fontSize=7;spacingLeft=17;fontColor=#000000;spacingTop=2;whiteSpace=wrap;resizeWidth=1;" vertex="1" parent="1">
          <mxGeometry x="917.5" y="1267" width="90" height="20" as="geometry">
            <mxPoint x="5" y="15" as="offset" />
          </mxGeometry>
        </mxCell>
        <mxCell id="twxLrlgCtxtxjb9tiOBU-117" value="&lt;div style=&quot;text-align: justify&quot;&gt;&lt;br&gt;&lt;/div&gt;" style="html=1;strokeWidth=1;shadow=0;dashed=0;shape=mxgraph.ios7ui.callout;strokeColor=none;fillColor=#0680FF;flipH=1;align=center;verticalAlign=top;fontSize=7;spacingLeft=2;fontColor=#ffffff;spacingTop=-2;whiteSpace=wrap;spacingRight=12;resizeWidth=1;" vertex="1" parent="1">
          <mxGeometry x="955" y="1304.5" width="87.5" height="25" as="geometry">
            <mxPoint y="40" as="offset" />
          </mxGeometry>
        </mxCell>
        <mxCell id="twxLrlgCtxtxjb9tiOBU-118" value="" style="verticalLabelPosition=bottom;shadow=0;dashed=0;align=center;html=1;verticalAlign=top;strokeWidth=1;shape=mxgraph.mockup.containers.userMale;strokeColor=#666666;strokeColor2=#008cff;" vertex="1" parent="1">
          <mxGeometry x="887.5" y="1262" width="30" height="30" as="geometry" />
        </mxCell>
        <mxCell id="twxLrlgCtxtxjb9tiOBU-119" value="" style="verticalLabelPosition=bottom;shadow=0;dashed=0;align=center;html=1;verticalAlign=top;strokeWidth=1;shape=mxgraph.mockup.containers.userFemale;strokeColor=#666666;strokeColor2=#008cff;" vertex="1" parent="1">
          <mxGeometry x="1042.5" y="1299.5" width="30" height="30" as="geometry" />
        </mxCell>
        <mxCell id="twxLrlgCtxtxjb9tiOBU-120" value="" style="html=1;strokeWidth=1;shadow=0;dashed=0;shape=mxgraph.ios7ui.callout;strokeColor=none;fillColor=#E7E6EC;align=left;verticalAlign=middle;fontSize=7;spacingLeft=17;fontColor=#000000;spacingTop=2;whiteSpace=wrap;resizeWidth=1;" vertex="1" parent="1">
          <mxGeometry x="917.5" y="1347" width="90" height="20" as="geometry">
            <mxPoint x="5" y="15" as="offset" />
          </mxGeometry>
        </mxCell>
        <mxCell id="twxLrlgCtxtxjb9tiOBU-121" value="" style="verticalLabelPosition=bottom;shadow=0;dashed=0;align=center;html=1;verticalAlign=top;strokeWidth=1;shape=mxgraph.mockup.containers.userMale;strokeColor=#666666;strokeColor2=#008cff;" vertex="1" parent="1">
          <mxGeometry x="887.5" y="1342" width="30" height="30" as="geometry" />
        </mxCell>
        <mxCell id="twxLrlgCtxtxjb9tiOBU-122" value="&lt;div style=&quot;text-align: justify&quot;&gt;&lt;br&gt;&lt;/div&gt;" style="html=1;strokeWidth=1;shadow=0;dashed=0;shape=mxgraph.ios7ui.callout;strokeColor=none;fillColor=#0680FF;flipH=1;align=center;verticalAlign=top;fontSize=7;spacingLeft=2;fontColor=#ffffff;spacingTop=-2;whiteSpace=wrap;spacingRight=12;resizeWidth=1;" vertex="1" parent="1">
          <mxGeometry x="955" y="1382" width="87.5" height="25" as="geometry">
            <mxPoint y="40" as="offset" />
          </mxGeometry>
        </mxCell>
        <mxCell id="twxLrlgCtxtxjb9tiOBU-123" value="" style="verticalLabelPosition=bottom;shadow=0;dashed=0;align=center;html=1;verticalAlign=top;strokeWidth=1;shape=mxgraph.mockup.containers.userFemale;strokeColor=#666666;strokeColor2=#008cff;" vertex="1" parent="1">
          <mxGeometry x="1042.5" y="1377" width="30" height="30" as="geometry" />
        </mxCell>
        <mxCell id="twxLrlgCtxtxjb9tiOBU-124" value="xxxxxxxx" style="text;html=1;strokeColor=none;fillColor=none;align=center;verticalAlign=middle;whiteSpace=wrap;rounded=0;" vertex="1" parent="1">
          <mxGeometry x="935" y="1267" width="60" height="20" as="geometry" />
        </mxCell>
        <mxCell id="twxLrlgCtxtxjb9tiOBU-125" value="xxxxxxxx" style="text;html=1;strokeColor=none;fillColor=none;align=center;verticalAlign=middle;whiteSpace=wrap;rounded=0;" vertex="1" parent="1">
          <mxGeometry x="965" y="1309.5" width="60" height="20" as="geometry" />
        </mxCell>
        <mxCell id="twxLrlgCtxtxjb9tiOBU-126" value="xxxxxxxx" style="text;html=1;strokeColor=none;fillColor=none;align=center;verticalAlign=middle;whiteSpace=wrap;rounded=0;" vertex="1" parent="1">
          <mxGeometry x="935" y="1347" width="60" height="20" as="geometry" />
        </mxCell>
        <mxCell id="twxLrlgCtxtxjb9tiOBU-127" value="xxxxxxxx" style="text;html=1;strokeColor=none;fillColor=none;align=center;verticalAlign=middle;whiteSpace=wrap;rounded=0;" vertex="1" parent="1">
          <mxGeometry x="965" y="1387" width="60" height="20" as="geometry" />
        </mxCell>
        <mxCell id="twxLrlgCtxtxjb9tiOBU-128" value="" style="line;strokeWidth=1;html=1;" vertex="1" parent="1">
          <mxGeometry x="885" y="1252" width="190" height="10" as="geometry" />
        </mxCell>
        <mxCell id="twxLrlgCtxtxjb9tiOBU-129" value="&lt;font style=&quot;font-weight: normal ; font-size: 13px&quot;&gt;联系人1&lt;/font&gt;" style="text;strokeColor=none;fillColor=none;html=1;fontSize=24;fontStyle=1;verticalAlign=middle;align=center;" vertex="1" parent="1">
          <mxGeometry x="945" y="1226" width="70" height="30" as="geometry" />
        </mxCell>
        <mxCell id="twxLrlgCtxtxjb9tiOBU-130" value="&lt;span style=&quot;font-weight: normal&quot;&gt;&lt;font style=&quot;font-size: 18px&quot;&gt;...&lt;/font&gt;&lt;/span&gt;" style="text;strokeColor=none;fillColor=none;html=1;fontSize=24;fontStyle=1;verticalAlign=middle;align=center;" vertex="1" parent="1">
          <mxGeometry x="1045" y="1221" width="30" height="40" as="geometry" />
        </mxCell>
        <mxCell id="twxLrlgCtxtxjb9tiOBU-131" value="&lt;span style=&quot;font-weight: normal&quot;&gt;&lt;font style=&quot;font-size: 18px&quot;&gt;&amp;lt;&lt;/font&gt;&lt;/span&gt;" style="text;strokeColor=none;fillColor=none;html=1;fontSize=24;fontStyle=1;verticalAlign=middle;align=center;" vertex="1" parent="1">
          <mxGeometry x="885" y="1222" width="30" height="40" as="geometry" />
        </mxCell>
        <mxCell id="twxLrlgCtxtxjb9tiOBU-132" value="App1" style="rounded=0;whiteSpace=wrap;html=1;aspect=fixed;" vertex="1" parent="1">
          <mxGeometry x="1086.62" y="1242" width="35" height="35" as="geometry" />
        </mxCell>
        <mxCell id="twxLrlgCtxtxjb9tiOBU-133" value="App2" style="rounded=0;whiteSpace=wrap;html=1;aspect=fixed;" vertex="1" parent="1">
          <mxGeometry x="1086.62" y="1292" width="35" height="35" as="geometry" />
        </mxCell>
        <mxCell id="twxLrlgCtxtxjb9tiOBU-134" value="App3" style="rounded=0;whiteSpace=wrap;html=1;aspect=fixed;" vertex="1" parent="1">
          <mxGeometry x="1086.62" y="1342" width="35" height="35" as="geometry" />
        </mxCell>
        <mxCell id="twxLrlgCtxtxjb9tiOBU-135" value="App4" style="rounded=0;whiteSpace=wrap;html=1;aspect=fixed;" vertex="1" parent="1">
          <mxGeometry x="1086.25" y="1392" width="35" height="35" as="geometry" />
        </mxCell>
        <mxCell id="twxLrlgCtxtxjb9tiOBU-136" value="App5" style="rounded=0;whiteSpace=wrap;html=1;aspect=fixed;" vertex="1" parent="1">
          <mxGeometry x="1086.25" y="1442" width="35" height="35" as="geometry" />
        </mxCell>
        <mxCell id="twxLrlgCtxtxjb9tiOBU-137" value="App6" style="rounded=0;whiteSpace=wrap;html=1;aspect=fixed;" vertex="1" parent="1">
          <mxGeometry x="1086.25" y="1492" width="35" height="35" as="geometry" />
        </mxCell>
        <mxCell id="twxLrlgCtxtxjb9tiOBU-141" value="App1&lt;br&gt;（浮窗）" style="rounded=0;whiteSpace=wrap;html=1;" vertex="1" parent="1">
          <mxGeometry x="893" y="1245" width="175" height="290" as="geometry" />
        </mxCell>
        <mxCell id="twxLrlgCtxtxjb9tiOBU-142" value="&lt;span style=&quot;font-size: 13px ; font-weight: 400&quot;&gt;X&lt;/span&gt;" style="text;strokeColor=none;fillColor=none;html=1;fontSize=24;fontStyle=1;verticalAlign=middle;align=center;" vertex="1" parent="1">
          <mxGeometry x="1047" y="1237" width="24.5" height="30" as="geometry" />
        </mxCell>
        <mxCell id="twxLrlgCtxtxjb9tiOBU-143" value="App3" style="rounded=0;whiteSpace=wrap;html=1;aspect=fixed;" vertex="1" parent="1">
          <mxGeometry x="1238.06" y="738" width="35" height="35" as="geometry" />
        </mxCell>
        <mxCell id="twxLrlgCtxtxjb9tiOBU-144" value="App4" style="rounded=0;whiteSpace=wrap;html=1;aspect=fixed;" vertex="1" parent="1">
          <mxGeometry x="1301.94" y="738" width="35" height="35" as="geometry" />
        </mxCell>
        <mxCell id="twxLrlgCtxtxjb9tiOBU-145" value="App3" style="rounded=0;whiteSpace=wrap;html=1;aspect=fixed;" vertex="1" parent="1">
          <mxGeometry x="1662.88" y="755" width="35" height="35" as="geometry" />
        </mxCell>
        <mxCell id="twxLrlgCtxtxjb9tiOBU-146" value="App4" style="rounded=0;whiteSpace=wrap;html=1;aspect=fixed;" vertex="1" parent="1">
          <mxGeometry x="1708.88" y="755" width="35" height="35" as="geometry" />
        </mxCell>
        <mxCell id="twxLrlgCtxtxjb9tiOBU-147" value="App5" style="rounded=0;whiteSpace=wrap;html=1;aspect=fixed;" vertex="1" parent="1">
          <mxGeometry x="1756.88" y="755" width="35" height="35" as="geometry" />
        </mxCell>
        <mxCell id="twxLrlgCtxtxjb9tiOBU-148" value="App6" style="rounded=0;whiteSpace=wrap;html=1;aspect=fixed;" vertex="1" parent="1">
          <mxGeometry x="1801" y="755" width="35" height="35" as="geometry" />
        </mxCell>
      </root>
    </mxGraphModel>
  </diagram>
  <diagram id="59bjd1afLnvFATCacb94" name="Page-2">
    <mxGraphModel dx="946" dy="646" grid="1" gridSize="10" guides="1" tooltips="1" connect="1" arrows="1" fold="1" page="1" pageScale="1" pageWidth="827" pageHeight="1169" math="0" shadow="0">
      <root>
        <mxCell id="hRCEiT467SHkK3vVEo3U-0" />
        <mxCell id="hRCEiT467SHkK3vVEo3U-1" parent="hRCEiT467SHkK3vVEo3U-0" />
        <mxCell id="dZ8E37pH-Li_Uz-NCkj8-12" value="" style="edgeStyle=orthogonalEdgeStyle;rounded=0;orthogonalLoop=1;jettySize=auto;html=1;" edge="1" parent="hRCEiT467SHkK3vVEo3U-1" source="-ZidV4mu1rzwEXh5ZT5c-0" target="-ZidV4mu1rzwEXh5ZT5c-2">
          <mxGeometry relative="1" as="geometry" />
        </mxCell>
        <mxCell id="-ZidV4mu1rzwEXh5ZT5c-0" value="开始" style="shape=hexagon;perimeter=hexagonPerimeter2;whiteSpace=wrap;html=1;fixedSize=1;" vertex="1" parent="hRCEiT467SHkK3vVEo3U-1">
          <mxGeometry x="160" y="40" width="120" height="40" as="geometry" />
        </mxCell>
        <mxCell id="-ZidV4mu1rzwEXh5ZT5c-1" value="结束" style="rounded=1;whiteSpace=wrap;html=1;arcSize=50;" vertex="1" parent="hRCEiT467SHkK3vVEo3U-1">
          <mxGeometry x="160" y="520" width="120" height="40" as="geometry" />
        </mxCell>
        <mxCell id="dZ8E37pH-Li_Uz-NCkj8-13" value="" style="edgeStyle=orthogonalEdgeStyle;rounded=0;orthogonalLoop=1;jettySize=auto;html=1;" edge="1" parent="hRCEiT467SHkK3vVEo3U-1" source="-ZidV4mu1rzwEXh5ZT5c-2" target="-ZidV4mu1rzwEXh5ZT5c-3">
          <mxGeometry relative="1" as="geometry" />
        </mxCell>
        <mxCell id="-ZidV4mu1rzwEXh5ZT5c-2" value="点击设置，进入副屏小组件选定和设置页面" style="rounded=0;whiteSpace=wrap;html=1;" vertex="1" parent="hRCEiT467SHkK3vVEo3U-1">
          <mxGeometry x="80" y="120" width="280" height="40" as="geometry" />
        </mxCell>
        <mxCell id="dZ8E37pH-Li_Uz-NCkj8-14" value="" style="edgeStyle=orthogonalEdgeStyle;rounded=0;orthogonalLoop=1;jettySize=auto;html=1;" edge="1" parent="hRCEiT467SHkK3vVEo3U-1" source="-ZidV4mu1rzwEXh5ZT5c-3" target="dZ8E37pH-Li_Uz-NCkj8-0">
          <mxGeometry relative="1" as="geometry" />
        </mxCell>
        <mxCell id="-ZidV4mu1rzwEXh5ZT5c-3" value="当卷轴屏展开10%时，进行1*1图标选定设置" style="rounded=0;whiteSpace=wrap;html=1;" vertex="1" parent="hRCEiT467SHkK3vVEo3U-1">
          <mxGeometry x="80" y="200" width="280" height="40" as="geometry" />
        </mxCell>
        <mxCell id="-ZidV4mu1rzwEXh5ZT5c-5" value="" style="curved=1;endArrow=none;html=1;strokeWidth=1;endFill=0;entryX=1;entryY=0.5;entryDx=0;entryDy=0;" edge="1" parent="hRCEiT467SHkK3vVEo3U-1" target="-ZidV4mu1rzwEXh5ZT5c-2">
          <mxGeometry width="50" height="50" relative="1" as="geometry">
            <mxPoint x="400" y="130" as="sourcePoint" />
            <mxPoint x="390" y="160" as="targetPoint" />
            <Array as="points">
              <mxPoint x="390" y="150" />
              <mxPoint x="370" y="120" />
            </Array>
          </mxGeometry>
        </mxCell>
        <mxCell id="-ZidV4mu1rzwEXh5ZT5c-6" value="101" style="text;html=1;strokeColor=none;fillColor=none;align=center;verticalAlign=middle;whiteSpace=wrap;rounded=0;" vertex="1" parent="hRCEiT467SHkK3vVEo3U-1">
          <mxGeometry x="394" y="120" width="40" height="20" as="geometry" />
        </mxCell>
        <mxCell id="dZ8E37pH-Li_Uz-NCkj8-15" value="" style="edgeStyle=orthogonalEdgeStyle;rounded=0;orthogonalLoop=1;jettySize=auto;html=1;" edge="1" parent="hRCEiT467SHkK3vVEo3U-1" source="dZ8E37pH-Li_Uz-NCkj8-0" target="dZ8E37pH-Li_Uz-NCkj8-1">
          <mxGeometry relative="1" as="geometry" />
        </mxCell>
        <mxCell id="dZ8E37pH-Li_Uz-NCkj8-0" value="当卷轴屏展开50%时，进行2*2图标选定设置" style="rounded=0;whiteSpace=wrap;html=1;" vertex="1" parent="hRCEiT467SHkK3vVEo3U-1">
          <mxGeometry x="80" y="280" width="280" height="40" as="geometry" />
        </mxCell>
        <mxCell id="dZ8E37pH-Li_Uz-NCkj8-16" value="" style="edgeStyle=orthogonalEdgeStyle;rounded=0;orthogonalLoop=1;jettySize=auto;html=1;" edge="1" parent="hRCEiT467SHkK3vVEo3U-1" source="dZ8E37pH-Li_Uz-NCkj8-1" target="dZ8E37pH-Li_Uz-NCkj8-3">
          <mxGeometry relative="1" as="geometry" />
        </mxCell>
        <mxCell id="dZ8E37pH-Li_Uz-NCkj8-1" value="当卷轴屏展开100%时，进行4*2图标选定设置" style="rounded=0;whiteSpace=wrap;html=1;" vertex="1" parent="hRCEiT467SHkK3vVEo3U-1">
          <mxGeometry x="80" y="360" width="280" height="40" as="geometry" />
        </mxCell>
        <mxCell id="dZ8E37pH-Li_Uz-NCkj8-41" value="" style="edgeStyle=orthogonalEdgeStyle;rounded=0;orthogonalLoop=1;jettySize=auto;html=1;" edge="1" parent="hRCEiT467SHkK3vVEo3U-1" source="dZ8E37pH-Li_Uz-NCkj8-3" target="-ZidV4mu1rzwEXh5ZT5c-1">
          <mxGeometry relative="1" as="geometry" />
        </mxCell>
        <mxCell id="dZ8E37pH-Li_Uz-NCkj8-3" value="点击完成按键，结束设置" style="rounded=0;whiteSpace=wrap;html=1;" vertex="1" parent="hRCEiT467SHkK3vVEo3U-1">
          <mxGeometry x="80" y="440" width="280" height="40" as="geometry" />
        </mxCell>
        <mxCell id="dZ8E37pH-Li_Uz-NCkj8-4" value="" style="curved=1;endArrow=none;html=1;strokeWidth=1;endFill=0;entryX=1;entryY=0.5;entryDx=0;entryDy=0;" edge="1" parent="hRCEiT467SHkK3vVEo3U-1">
          <mxGeometry width="50" height="50" relative="1" as="geometry">
            <mxPoint x="400" y="210" as="sourcePoint" />
            <mxPoint x="360" y="220" as="targetPoint" />
            <Array as="points">
              <mxPoint x="390" y="230" />
              <mxPoint x="370" y="200" />
            </Array>
          </mxGeometry>
        </mxCell>
        <mxCell id="dZ8E37pH-Li_Uz-NCkj8-5" value="" style="curved=1;endArrow=none;html=1;strokeWidth=1;endFill=0;entryX=1;entryY=0.5;entryDx=0;entryDy=0;" edge="1" parent="hRCEiT467SHkK3vVEo3U-1">
          <mxGeometry width="50" height="50" relative="1" as="geometry">
            <mxPoint x="400" y="295" as="sourcePoint" />
            <mxPoint x="360" y="305" as="targetPoint" />
            <Array as="points">
              <mxPoint x="390" y="315" />
              <mxPoint x="370" y="285" />
            </Array>
          </mxGeometry>
        </mxCell>
        <mxCell id="dZ8E37pH-Li_Uz-NCkj8-6" value="" style="curved=1;endArrow=none;html=1;strokeWidth=1;endFill=0;entryX=1;entryY=0.5;entryDx=0;entryDy=0;" edge="1" parent="hRCEiT467SHkK3vVEo3U-1">
          <mxGeometry width="50" height="50" relative="1" as="geometry">
            <mxPoint x="400" y="375" as="sourcePoint" />
            <mxPoint x="360" y="385" as="targetPoint" />
            <Array as="points">
              <mxPoint x="390" y="395" />
              <mxPoint x="370" y="365" />
            </Array>
          </mxGeometry>
        </mxCell>
        <mxCell id="dZ8E37pH-Li_Uz-NCkj8-7" value="" style="curved=1;endArrow=none;html=1;strokeWidth=1;endFill=0;entryX=1;entryY=0.5;entryDx=0;entryDy=0;" edge="1" parent="hRCEiT467SHkK3vVEo3U-1">
          <mxGeometry width="50" height="50" relative="1" as="geometry">
            <mxPoint x="400" y="455" as="sourcePoint" />
            <mxPoint x="360" y="465" as="targetPoint" />
            <Array as="points">
              <mxPoint x="390" y="475" />
              <mxPoint x="370" y="445" />
            </Array>
          </mxGeometry>
        </mxCell>
        <mxCell id="dZ8E37pH-Li_Uz-NCkj8-8" value="102" style="text;html=1;strokeColor=none;fillColor=none;align=center;verticalAlign=middle;whiteSpace=wrap;rounded=0;" vertex="1" parent="hRCEiT467SHkK3vVEo3U-1">
          <mxGeometry x="394" y="200" width="40" height="20" as="geometry" />
        </mxCell>
        <mxCell id="dZ8E37pH-Li_Uz-NCkj8-9" value="103" style="text;html=1;strokeColor=none;fillColor=none;align=center;verticalAlign=middle;whiteSpace=wrap;rounded=0;" vertex="1" parent="hRCEiT467SHkK3vVEo3U-1">
          <mxGeometry x="394" y="280" width="40" height="20" as="geometry" />
        </mxCell>
        <mxCell id="dZ8E37pH-Li_Uz-NCkj8-10" value="104" style="text;html=1;strokeColor=none;fillColor=none;align=center;verticalAlign=middle;whiteSpace=wrap;rounded=0;" vertex="1" parent="hRCEiT467SHkK3vVEo3U-1">
          <mxGeometry x="394" y="360" width="40" height="20" as="geometry" />
        </mxCell>
        <mxCell id="dZ8E37pH-Li_Uz-NCkj8-11" value="105" style="text;html=1;strokeColor=none;fillColor=none;align=center;verticalAlign=middle;whiteSpace=wrap;rounded=0;" vertex="1" parent="hRCEiT467SHkK3vVEo3U-1">
          <mxGeometry x="394" y="440" width="40" height="20" as="geometry" />
        </mxCell>
        <mxCell id="dZ8E37pH-Li_Uz-NCkj8-18" value="" style="edgeStyle=orthogonalEdgeStyle;rounded=0;orthogonalLoop=1;jettySize=auto;html=1;" edge="1" parent="hRCEiT467SHkK3vVEo3U-1" source="dZ8E37pH-Li_Uz-NCkj8-19" target="dZ8E37pH-Li_Uz-NCkj8-21">
          <mxGeometry relative="1" as="geometry" />
        </mxCell>
        <mxCell id="dZ8E37pH-Li_Uz-NCkj8-19" value="开始" style="shape=hexagon;perimeter=hexagonPerimeter2;whiteSpace=wrap;html=1;fixedSize=1;" vertex="1" parent="hRCEiT467SHkK3vVEo3U-1">
          <mxGeometry x="640" y="40" width="120" height="40" as="geometry" />
        </mxCell>
        <mxCell id="dZ8E37pH-Li_Uz-NCkj8-20" value="" style="edgeStyle=orthogonalEdgeStyle;rounded=0;orthogonalLoop=1;jettySize=auto;html=1;" edge="1" parent="hRCEiT467SHkK3vVEo3U-1" source="dZ8E37pH-Li_Uz-NCkj8-21" target="dZ8E37pH-Li_Uz-NCkj8-23">
          <mxGeometry relative="1" as="geometry" />
        </mxCell>
        <mxCell id="dZ8E37pH-Li_Uz-NCkj8-21" value="&lt;span style=&quot;color: rgb(0 , 0 , 0) ; font-family: &amp;#34;helvetica&amp;#34; ; font-size: 12px ; font-style: normal ; font-weight: 400 ; letter-spacing: normal ; text-align: center ; text-indent: 0px ; text-transform: none ; word-spacing: 0px ; background-color: rgb(248 , 249 , 250) ; display: inline ; float: none&quot;&gt;当卷轴屏展开10%时，在副屏下显示1*1 app图标&lt;/span&gt;" style="rounded=0;whiteSpace=wrap;html=1;" vertex="1" parent="hRCEiT467SHkK3vVEo3U-1">
          <mxGeometry x="560" y="120" width="280" height="40" as="geometry" />
        </mxCell>
        <mxCell id="dZ8E37pH-Li_Uz-NCkj8-22" value="" style="edgeStyle=orthogonalEdgeStyle;rounded=0;orthogonalLoop=1;jettySize=auto;html=1;" edge="1" parent="hRCEiT467SHkK3vVEo3U-1" source="dZ8E37pH-Li_Uz-NCkj8-23" target="dZ8E37pH-Li_Uz-NCkj8-27">
          <mxGeometry relative="1" as="geometry" />
        </mxCell>
        <mxCell id="dZ8E37pH-Li_Uz-NCkj8-23" value="当在副屏下点击某个app1图标时，在主屏下以浮窗形式预览app1的信息" style="rounded=0;whiteSpace=wrap;html=1;" vertex="1" parent="hRCEiT467SHkK3vVEo3U-1">
          <mxGeometry x="560" y="200" width="280" height="40" as="geometry" />
        </mxCell>
        <mxCell id="dZ8E37pH-Li_Uz-NCkj8-24" value="" style="curved=1;endArrow=none;html=1;strokeWidth=1;endFill=0;entryX=1;entryY=0.5;entryDx=0;entryDy=0;" edge="1" parent="hRCEiT467SHkK3vVEo3U-1" target="dZ8E37pH-Li_Uz-NCkj8-21">
          <mxGeometry width="50" height="50" relative="1" as="geometry">
            <mxPoint x="880" y="130" as="sourcePoint" />
            <mxPoint x="870" y="160" as="targetPoint" />
            <Array as="points">
              <mxPoint x="870" y="150" />
              <mxPoint x="850" y="120" />
            </Array>
          </mxGeometry>
        </mxCell>
        <mxCell id="dZ8E37pH-Li_Uz-NCkj8-25" value="106" style="text;html=1;strokeColor=none;fillColor=none;align=center;verticalAlign=middle;whiteSpace=wrap;rounded=0;" vertex="1" parent="hRCEiT467SHkK3vVEo3U-1">
          <mxGeometry x="874" y="120" width="40" height="20" as="geometry" />
        </mxCell>
        <mxCell id="dZ8E37pH-Li_Uz-NCkj8-26" value="" style="edgeStyle=orthogonalEdgeStyle;rounded=0;orthogonalLoop=1;jettySize=auto;html=1;" edge="1" parent="hRCEiT467SHkK3vVEo3U-1" source="dZ8E37pH-Li_Uz-NCkj8-27" target="dZ8E37pH-Li_Uz-NCkj8-29">
          <mxGeometry relative="1" as="geometry" />
        </mxCell>
        <mxCell id="dZ8E37pH-Li_Uz-NCkj8-27" value="当卷轴屏展开10%到50%时，进一步展示更多1*1 app图标" style="rounded=0;whiteSpace=wrap;html=1;" vertex="1" parent="hRCEiT467SHkK3vVEo3U-1">
          <mxGeometry x="560" y="280" width="280" height="40" as="geometry" />
        </mxCell>
        <mxCell id="dZ8E37pH-Li_Uz-NCkj8-43" value="" style="edgeStyle=orthogonalEdgeStyle;rounded=0;orthogonalLoop=1;jettySize=auto;html=1;" edge="1" parent="hRCEiT467SHkK3vVEo3U-1" source="dZ8E37pH-Li_Uz-NCkj8-29" target="dZ8E37pH-Li_Uz-NCkj8-32">
          <mxGeometry relative="1" as="geometry" />
        </mxCell>
        <mxCell id="dZ8E37pH-Li_Uz-NCkj8-29" value="当卷轴屏展开50%时，将画面切换，展示2*2小组件" style="rounded=0;whiteSpace=wrap;html=1;" vertex="1" parent="hRCEiT467SHkK3vVEo3U-1">
          <mxGeometry x="560" y="360" width="280" height="40" as="geometry" />
        </mxCell>
        <mxCell id="dZ8E37pH-Li_Uz-NCkj8-31" value="" style="edgeStyle=orthogonalEdgeStyle;rounded=0;orthogonalLoop=1;jettySize=auto;html=1;" edge="1" parent="hRCEiT467SHkK3vVEo3U-1" source="dZ8E37pH-Li_Uz-NCkj8-32">
          <mxGeometry relative="1" as="geometry">
            <mxPoint x="700" y="520" as="targetPoint" />
          </mxGeometry>
        </mxCell>
        <mxCell id="dZ8E37pH-Li_Uz-NCkj8-32" value="当卷轴屏展开100%时，将画面切换，展示4*2小组件，此时当点击某个app1小组件，将在副屏下全屏显示app1信息" style="rounded=0;whiteSpace=wrap;html=1;" vertex="1" parent="hRCEiT467SHkK3vVEo3U-1">
          <mxGeometry x="560" y="440" width="280" height="40" as="geometry" />
        </mxCell>
        <mxCell id="dZ8E37pH-Li_Uz-NCkj8-33" value="" style="curved=1;endArrow=none;html=1;strokeWidth=1;endFill=0;entryX=1;entryY=0.5;entryDx=0;entryDy=0;" edge="1" parent="hRCEiT467SHkK3vVEo3U-1">
          <mxGeometry width="50" height="50" relative="1" as="geometry">
            <mxPoint x="880" y="210" as="sourcePoint" />
            <mxPoint x="840" y="220" as="targetPoint" />
            <Array as="points">
              <mxPoint x="870" y="230" />
              <mxPoint x="850" y="200" />
            </Array>
          </mxGeometry>
        </mxCell>
        <mxCell id="dZ8E37pH-Li_Uz-NCkj8-34" value="" style="curved=1;endArrow=none;html=1;strokeWidth=1;endFill=0;entryX=1;entryY=0.5;entryDx=0;entryDy=0;" edge="1" parent="hRCEiT467SHkK3vVEo3U-1">
          <mxGeometry width="50" height="50" relative="1" as="geometry">
            <mxPoint x="880" y="295" as="sourcePoint" />
            <mxPoint x="840" y="305" as="targetPoint" />
            <Array as="points">
              <mxPoint x="870" y="315" />
              <mxPoint x="850" y="285" />
            </Array>
          </mxGeometry>
        </mxCell>
        <mxCell id="dZ8E37pH-Li_Uz-NCkj8-35" value="" style="curved=1;endArrow=none;html=1;strokeWidth=1;endFill=0;entryX=1;entryY=0.5;entryDx=0;entryDy=0;" edge="1" parent="hRCEiT467SHkK3vVEo3U-1">
          <mxGeometry width="50" height="50" relative="1" as="geometry">
            <mxPoint x="880" y="375" as="sourcePoint" />
            <mxPoint x="840" y="385" as="targetPoint" />
            <Array as="points">
              <mxPoint x="870" y="395" />
              <mxPoint x="850" y="365" />
            </Array>
          </mxGeometry>
        </mxCell>
        <mxCell id="dZ8E37pH-Li_Uz-NCkj8-36" value="" style="curved=1;endArrow=none;html=1;strokeWidth=1;endFill=0;entryX=1;entryY=0.5;entryDx=0;entryDy=0;" edge="1" parent="hRCEiT467SHkK3vVEo3U-1">
          <mxGeometry width="50" height="50" relative="1" as="geometry">
            <mxPoint x="880" y="455" as="sourcePoint" />
            <mxPoint x="840" y="465" as="targetPoint" />
            <Array as="points">
              <mxPoint x="870" y="475" />
              <mxPoint x="850" y="445" />
            </Array>
          </mxGeometry>
        </mxCell>
        <mxCell id="dZ8E37pH-Li_Uz-NCkj8-37" value="107" style="text;html=1;strokeColor=none;fillColor=none;align=center;verticalAlign=middle;whiteSpace=wrap;rounded=0;" vertex="1" parent="hRCEiT467SHkK3vVEo3U-1">
          <mxGeometry x="874" y="200" width="40" height="20" as="geometry" />
        </mxCell>
        <mxCell id="dZ8E37pH-Li_Uz-NCkj8-38" value="108" style="text;html=1;strokeColor=none;fillColor=none;align=center;verticalAlign=middle;whiteSpace=wrap;rounded=0;" vertex="1" parent="hRCEiT467SHkK3vVEo3U-1">
          <mxGeometry x="874" y="280" width="40" height="20" as="geometry" />
        </mxCell>
        <mxCell id="dZ8E37pH-Li_Uz-NCkj8-39" value="109" style="text;html=1;strokeColor=none;fillColor=none;align=center;verticalAlign=middle;whiteSpace=wrap;rounded=0;" vertex="1" parent="hRCEiT467SHkK3vVEo3U-1">
          <mxGeometry x="874" y="360" width="40" height="20" as="geometry" />
        </mxCell>
        <mxCell id="dZ8E37pH-Li_Uz-NCkj8-40" value="110" style="text;html=1;strokeColor=none;fillColor=none;align=center;verticalAlign=middle;whiteSpace=wrap;rounded=0;" vertex="1" parent="hRCEiT467SHkK3vVEo3U-1">
          <mxGeometry x="874" y="440" width="40" height="20" as="geometry" />
        </mxCell>
        <mxCell id="dZ8E37pH-Li_Uz-NCkj8-42" value="结束" style="rounded=1;whiteSpace=wrap;html=1;arcSize=50;" vertex="1" parent="hRCEiT467SHkK3vVEo3U-1">
          <mxGeometry x="640" y="520" width="120" height="40" as="geometry" />
        </mxCell>
      </root>
    </mxGraphModel>
  </diagram>
</mxfile>
